# 3ds Max Wavefront OBJ Exporter v0.99 - (c)2007 guruware
# File Created: 13.11.2024 01:46:18

mtllib Cylinder2.mtl

#
# object Cylinder001
#

v  9.3969 -10.0000 -3.4202
v  10.0000 -10.0000 -0.0000
v  9.3969 -10.0000 3.4202
v  7.6604 -10.0000 6.4279
v  5.0000 -10.0000 8.6603
v  1.7365 -10.0000 9.8481
v  -1.7365 -10.0000 -9.8481
v  1.7365 -10.0000 -9.8481
v  5.0000 -10.0000 -8.6603
v  7.6604 -10.0000 -6.4279
v  10.0000 10.0000 -0.0000
v  9.3969 10.0000 -3.4202
v  7.6604 10.0000 -6.4279
v  5.0000 10.0000 -8.6603
v  -1.7365 10.0000 -9.8481
v  1.7365 10.0000 -9.8481
v  1.7365 10.0000 9.8481
v  5.0000 10.0000 8.6603
v  7.6604 10.0000 6.4279
v  9.3969 10.0000 3.4202
# 20 vertices

vn 0.6975 -0.6701 -0.2539
vn 0.7423 -0.6701 -0.0000
vn 0.6976 -0.6700 0.2539
vn 0.5687 -0.6700 0.4772
vn 0.3712 -0.6700 0.6429
vn 0.1289 -0.6700 0.7311
vn -0.1289 -0.6700 -0.7311
vn 0.1289 -0.6701 -0.7310
vn 0.3712 -0.6701 -0.6428
vn 0.5687 -0.6700 -0.4772
vn 0.7423 0.6701 -0.0000
vn 0.6975 0.6701 -0.2539
vn 0.5687 0.6700 -0.4772
vn 0.3712 0.6701 -0.6428
vn -0.1289 0.6700 -0.7311
vn 0.1289 0.6701 -0.7310
vn 0.1289 0.6700 0.7311
vn 0.3712 0.6700 0.6429
vn 0.5687 0.6700 0.4772
vn 0.6976 0.6700 0.2539
vn -0.9848 0.0000 0.1736
# 21 vertex normals

vt 0.8056 0.0000 1.0000
vt 0.7500 0.0000 1.0000
vt 0.6944 0.0000 1.0000
vt 0.2631 0.0000 -0.1848
vt 0.1376 0.0000 -0.5321
vt 0.0559 0.0000 -0.8152
vt 0.9441 0.0000 0.8152
vt 0.9722 0.0000 1.0000
vt 0.9167 0.0000 1.0000
vt 0.8611 0.0000 1.0000
vt 0.7500 1.0000 1.0000
vt 0.8056 1.0000 1.0000
vt 0.8611 1.0000 1.0000
vt 0.9167 1.0000 1.0000
vt 0.0278 0.0000 1.0000
vt 0.0278 1.0000 1.0000
vt -0.0278 1.0000 1.0000
vt -0.0278 0.0000 1.0000
vt -0.0800 1.0000 1.0000
vt -0.0800 0.0000 1.0000
vt 0.5278 1.0000 1.0000
vt 0.5278 0.0000 1.0000
vt 0.5833 0.0000 1.0000
vt 0.5833 1.0000 1.0000
vt 0.6389 0.0000 1.0000
vt 0.6389 1.0000 1.0000
vt 0.6944 1.0000 1.0000
vt 0.8988 1.0000 0.8152
vt 0.8328 1.0000 0.5321
vt 0.1672 1.0000 -0.5321
# 30 texture coords

o Cylinder001
g Cylinder001
usemtl wire_177148027
s 1
f 1/1/1 2/2/2 3/3/3 
f 3/3/3 4/4/4 5/5/5 
f 5/5/5 6/6/6 7/7/7 
f 7/7/7 8/8/8 9/9/9 
f 5/5/5 7/7/7 9/9/9 
f 3/3/3 5/5/5 9/9/9 
f 1/1/1 3/3/3 9/9/9 
f 10/10/10 1/1/1 9/9/9 
s 8
f 11/11/11 2/2/2 1/1/1 
f 1/1/1 12/12/12 11/11/11 
f 12/12/12 1/1/1 10/10/10 
f 10/10/10 13/13/13 12/12/12 
f 13/13/13 10/10/10 9/9/9 
f 9/9/9 14/14/14 13/13/13 
f 7/15/7 15/16/15 16/17/16 
f 8/18/8 7/15/7 16/17/16 
f 8/18/8 16/17/16 14/19/14 
f 8/18/8 14/19/14 9/20/9 
f 17/21/17 6/22/6 5/23/5 
f 5/23/5 18/24/18 17/21/17 
f 18/24/18 5/23/5 4/25/4 
f 4/25/4 19/26/19 18/24/18 
f 19/26/19 4/25/4 3/3/3 
f 3/3/3 20/27/20 19/26/19 
f 20/27/20 3/3/3 2/2/2 
f 2/2/2 11/11/11 20/27/20 
s 1
f 11/11/11 12/12/12 13/13/13 
f 13/13/13 14/14/14 16/28/16 
f 16/28/16 15/29/15 17/30/17 
f 17/30/17 18/24/18 19/26/19 
f 16/28/16 17/30/17 19/26/19 
f 13/13/13 16/28/16 19/26/19 
f 11/11/11 13/13/13 19/26/19 
f 20/27/20 11/11/11 19/26/19 
s 2
f 6/18/21 17/17/21 15/16/21 
f 15/16/21 7/15/21 6/18/21 
# 36 faces

