# 3ds Max Wavefront OBJ Exporter v0.99 - (c)2007 guruware
# File Created: 13.11.2024 01:50:47

mtllib plane3.mtl

#
# object Plane001
#

v  17.3333 0.0000 15.1111
v  0.0000 0.0000 15.1111
v  0.0000 0.0000 30.2222
v  17.3333 0.0000 30.2222
v  34.6667 0.0000 15.1111
v  34.6667 0.0000 30.2222
v  17.3333 0.0000 -0.0000
v  0.0000 0.0000 -0.0000
v  34.6667 0.0000 -0.0000
v  17.3333 0.0000 -15.1111
v  0.0000 0.0000 -15.1111
v  34.6667 0.0000 -15.1111
v  17.3333 0.0000 -30.2222
v  0.0000 0.0000 -30.2222
v  34.6667 0.0000 -30.2222
# 15 vertices

vn 0.0000 1.0000 -0.0000
# 1 vertex normals

vt 0.7500 0.2500 0.0000
vt 0.5000 0.2500 0.0000
vt 0.5000 0.0000 0.0000
vt 0.7500 0.0000 0.0000
vt 1.0000 0.2500 0.0000
vt 1.0000 0.0000 0.0000
vt 0.7500 0.5000 0.0000
vt 0.5000 0.5000 0.0000
vt 1.0000 0.5000 0.0000
vt 0.7500 0.7500 0.0000
vt 0.5000 0.7500 0.0000
vt 1.0000 0.7500 0.0000
vt 0.7500 1.0000 0.0000
vt 0.5000 1.0000 0.0000
vt 1.0000 1.0000 0.0000
# 15 texture coords

o Plane001
g Plane001
usemtl wire_153228153
s 1
f 1/1/1 2/2/1 3/3/1 
f 3/3/1 4/4/1 1/1/1 
f 5/5/1 1/1/1 4/4/1 
f 4/4/1 6/6/1 5/5/1 
f 7/7/1 8/8/1 2/2/1 
f 2/2/1 1/1/1 7/7/1 
f 9/9/1 7/7/1 1/1/1 
f 1/1/1 5/5/1 9/9/1 
f 10/10/1 11/11/1 8/8/1 
f 8/8/1 7/7/1 10/10/1 
f 12/12/1 10/10/1 7/7/1 
f 7/7/1 9/9/1 12/12/1 
f 13/13/1 14/14/1 11/11/1 
f 11/11/1 10/10/1 13/13/1 
f 15/15/1 13/13/1 10/10/1 
f 10/10/1 12/12/1 15/15/1 
# 16 faces

