# 3ds Max Wavefront OBJ Exporter v0.99 - (c)2007 guruware
# File Created: 10.11.2024 20:38:26

mtllib basket.mtl

#
# object Cylinder001
#

v  9.3969 0.0000 3.4202
v  7.6604 0.0000 6.4279
v  5.0000 0.0000 8.6603
v  1.7365 0.0000 9.8481
v  -1.7365 0.0000 9.8481
v  -5.0000 0.0000 8.6603
v  -7.6604 0.0000 6.4279
v  -9.3969 0.0000 3.4202
v  -10.0000 0.0000 -0.0000
v  -9.3969 0.0000 -3.4202
v  -7.6604 0.0000 -6.4279
v  -5.0000 0.0000 -8.6603
v  -1.7365 0.0000 -9.8481
v  1.7365 0.0000 -9.8481
v  5.0000 0.0000 -8.6603
v  7.6604 0.0000 -6.4279
v  9.3969 0.0000 -3.4202
v  10.0000 0.0000 -0.0000
v  11.9548 5.0000 -3.4202
v  12.5579 5.0000 -0.0000
v  10.2184 5.0000 -6.4279
v  7.5579 5.0000 -8.6603
v  1.7365 5.0000 -9.8481
v  -1.7365 5.0000 -9.8481
v  -7.5579 5.0000 -8.6603
v  -10.2184 5.0000 -6.4279
v  -11.9548 5.0000 -3.4202
v  -12.5579 5.0000 -0.0000
v  -11.9548 5.0000 3.4202
v  -10.2184 5.0000 6.4279
v  -7.5579 5.0000 8.6603
v  -1.7365 5.0000 9.8481
v  1.7365 5.0000 9.8481
v  7.5579 5.0000 8.6603
v  10.2184 5.0000 6.4279
v  11.9548 5.0000 3.4202
v  8.6953 0.3432 3.1648
v  9.2534 0.3432 -0.0000
v  8.6953 0.3432 -3.1648
v  7.0885 0.3432 -5.9479
v  4.6267 0.3432 -8.0137
v  1.6068 0.3432 -9.1128
v  -1.6068 0.3432 -9.1128
v  -4.6267 0.3432 -8.0136
v  -7.0885 0.3432 -5.9479
v  -8.6953 0.3432 -3.1648
v  -9.2534 0.3432 -0.0000
v  -8.6953 0.3432 3.1648
v  -7.0885 0.3432 5.9479
v  -4.6267 0.3432 8.0136
v  -1.6068 0.3432 9.1128
v  1.6068 0.3432 9.1128
v  4.6267 0.3432 8.0137
v  7.0885 0.3432 5.9480
v  11.2532 4.5098 -3.1648
v  11.8113 4.5098 -0.0000
v  9.6464 4.5098 -5.9479
v  7.1846 4.5098 -8.0137
v  1.6068 4.5098 -9.1128
v  -1.6068 4.5098 -9.1128
v  -7.1846 4.5098 -8.0136
v  -9.6464 4.5098 -5.9479
v  -11.2532 4.5098 -3.1648
v  -11.8113 4.5098 -0.0000
v  -11.2532 4.5098 3.1648
v  -9.6464 4.5098 5.9479
v  -7.1846 4.5098 8.0136
v  -1.6068 4.5098 9.1128
v  1.6068 4.5098 9.1128
v  7.1846 4.5098 8.0137
v  9.6464 4.5098 5.9480
v  11.2532 4.5098 3.1648
# 72 vertices

vn 0.5350 -0.8194 0.2060
vn 0.4515 -0.7943 0.4065
vn 0.3031 -0.7512 0.5864
vn 0.1289 -0.6700 0.7311
vn -0.1289 -0.6700 0.7311
vn -0.3031 -0.7512 0.5864
vn -0.4515 -0.7943 0.4065
vn -0.5350 -0.8194 0.2060
vn -0.5615 -0.8275 -0.0000
vn -0.5350 -0.8194 -0.2060
vn -0.4515 -0.7943 -0.4065
vn -0.3031 -0.7512 -0.5864
vn -0.1289 -0.6700 -0.7311
vn 0.1289 -0.6701 -0.7310
vn 0.3031 -0.7512 -0.5864
vn 0.4515 -0.7943 -0.4065
vn 0.5350 -0.8194 -0.2060
vn 0.5615 -0.8275 0.0000
vn 0.6784 0.7018 -0.2174
vn 0.7196 0.6944 0.0000
vn 0.5586 0.7240 -0.4047
vn 0.3593 0.7480 -0.5580
vn 0.0498 0.8567 -0.5134
vn -0.0498 0.8567 -0.5134
vn -0.3593 0.7480 -0.5580
vn -0.5586 0.7240 -0.4047
vn -0.6784 0.7018 -0.2174
vn -0.7196 0.6944 -0.0000
vn -0.6784 0.7018 0.2174
vn -0.5586 0.7240 0.4047
vn -0.3593 0.7480 0.5580
vn -0.0498 0.8567 0.5135
vn 0.0498 0.8567 0.5135
vn 0.3593 0.7480 0.5580
vn 0.5586 0.7240 0.4047
vn 0.6784 0.7018 0.2174
vn -0.5043 0.8410 -0.1960
vn -0.5274 0.8496 -0.0000
vn -0.5043 0.8410 0.1960
vn -0.4299 0.8135 0.3916
vn -0.2915 0.7644 0.5750
vn -0.1289 0.6700 0.7311
vn 0.1289 0.6700 0.7311
vn 0.2915 0.7644 0.5750
vn 0.4299 0.8135 0.3916
vn 0.5043 0.8410 0.1960
vn 0.5274 0.8496 0.0000
vn 0.5043 0.8410 -0.1960
vn 0.4299 0.8135 -0.3916
vn 0.2915 0.7644 -0.5750
vn 0.1289 0.6700 -0.7311
vn -0.1289 0.6701 -0.7310
vn -0.2915 0.7644 -0.5750
vn -0.4299 0.8135 -0.3916
vn -0.6733 0.7004 0.2370
vn -0.7056 0.7086 -0.0000
vn -0.5752 0.6746 0.4626
vn -0.3631 0.6262 0.6900
vn -0.0835 0.4870 0.8694
vn 0.0835 0.4870 0.8694
vn 0.3631 0.6262 0.6900
vn 0.5752 0.6746 0.4626
vn 0.6733 0.7004 0.2370
vn 0.7056 0.7086 0.0000
vn 0.6733 0.7004 -0.2370
vn 0.5752 0.6746 -0.4626
vn 0.3631 0.6262 -0.6900
vn 0.0834 0.4870 -0.8694
vn -0.0835 0.4870 -0.8694
vn -0.3631 0.6262 -0.6900
vn -0.5752 0.6746 -0.4626
vn -0.6733 0.7004 -0.2370
# 72 vertex normals

vt 0.3400 0.0000 -0.0000
vt 0.1953 0.0000 -0.3473
vt 0.0874 0.0000 -0.6527
vt 0.0292 0.0000 -0.8794
vt 0.0278 0.0000 -1.0000
vt 0.0833 0.0000 -1.0000
vt 0.1891 0.0000 -0.8794
vt 0.3325 0.0000 -0.6527
vt 0.4960 0.0000 -0.3473
vt 0.6600 0.0000 0.0000
vt 0.8047 0.0000 0.3473
vt 0.9126 0.0000 0.6527
vt 0.9708 0.0000 0.8794
vt 0.9722 0.0000 1.0000
vt 0.9167 0.0000 1.0000
vt 0.8611 0.0000 1.0000
vt 0.8056 0.0000 1.0000
vt 0.7500 0.0000 1.0000
vt 0.8056 1.0000 1.0000
vt 0.7500 1.0000 1.0000
vt 0.8611 1.0000 1.0000
vt 0.9167 1.0000 1.0000
vt 0.9722 1.0000 1.0000
vt -0.0278 0.0000 1.0000
vt 0.0278 0.0000 1.0000
vt 0.0278 1.0000 1.0000
vt -0.0278 1.0000 1.0000
vt 0.0833 0.0000 1.0000
vt 0.0833 1.0000 1.0000
vt 0.1389 0.0000 1.0000
vt 0.1389 1.0000 1.0000
vt 0.1944 0.0000 1.0000
vt 0.1944 1.0000 1.0000
vt 0.2500 0.0000 1.0000
vt 0.2500 1.0000 1.0000
vt 0.3056 0.0000 1.0000
vt 0.3056 1.0000 1.0000
vt 0.3611 0.0000 1.0000
vt 0.3611 1.0000 1.0000
vt 0.4167 0.0000 1.0000
vt 0.4167 1.0000 1.0000
vt 0.4722 0.0000 1.0000
vt 0.4722 1.0000 1.0000
vt 0.5278 0.0000 1.0000
vt 0.5278 1.0000 1.0000
vt 0.5833 0.0000 1.0000
vt 0.5833 1.0000 1.0000
vt 0.6389 0.0000 1.0000
vt 0.6389 1.0000 1.0000
vt 0.6944 0.0000 1.0000
vt 0.6944 1.0000 1.0000
vt 0.9708 1.0000 0.8794
vt 0.9126 1.0000 0.6527
vt 0.8047 1.0000 0.3473
vt 0.6600 1.0000 0.0000
vt 0.4960 1.0000 -0.3473
vt 0.3325 1.0000 -0.6527
vt 0.1891 1.0000 -0.8794
vt 0.0833 1.0000 -1.0000
vt 0.0278 1.0000 -1.0000
vt 0.0292 1.0000 -0.8794
vt 0.0874 1.0000 -0.6527
vt 0.1953 1.0000 -0.3473
# 63 texture coords

o Cylinder001
g Cylinder001
usemtl wire_112042002
s 1
f 1/1/1 2/2/2 3/3/3 4/4/4 5/5/5 6/6/6 7/7/7 8/8/8 9/9/9 10/10/10 11/11/11 12/12/12 13/13/13 14/14/14 15/15/15 16/16/16 17/17/17 18/18/18 
s 8
f 18/18/18 17/17/17 19/19/19 20/20/20 
f 17/17/17 16/16/16 21/21/21 19/19/19 
f 16/16/16 15/15/15 22/22/22 21/21/21 
f 15/15/15 14/14/14 23/23/23 22/22/22 
f 14/24/14 13/25/13 24/26/24 23/27/23 
f 13/25/13 12/28/12 25/29/25 24/26/24 
f 12/28/12 11/30/11 26/31/26 25/29/25 
f 11/30/11 10/32/10 27/33/27 26/31/26 
f 10/32/10 9/34/9 28/35/28 27/33/27 
f 9/34/9 8/36/8 29/37/29 28/35/28 
f 8/36/8 7/38/7 30/39/30 29/37/29 
f 7/38/7 6/40/6 31/41/31 30/39/30 
f 6/40/6 5/42/5 32/43/32 31/41/31 
f 5/42/5 4/44/4 33/45/33 32/43/32 
f 4/44/4 3/46/3 34/47/34 33/45/33 
f 3/46/3 2/48/2 35/49/35 34/47/34 
f 2/48/2 1/50/1 36/51/36 35/49/35 
f 1/50/1 18/18/18 20/20/20 36/51/36 
s 1
f 37/51/37 38/20/38 39/19/39 40/21/40 41/22/41 42/23/42 43/52/43 44/53/44 45/54/45 46/55/46 47/56/47 48/57/48 49/58/49 50/59/50 51/60/51 52/61/52 53/62/53 54/63/54 
s off
f 20/20/20 19/19/19 55/19/55 56/20/56 
f 19/19/19 21/21/21 57/21/57 55/19/55 
f 21/21/21 22/22/22 58/22/58 57/21/57 
f 22/22/22 23/23/23 59/23/59 58/22/58 
f 23/23/23 24/52/24 60/52/60 59/23/59 
f 24/52/24 25/53/25 61/53/61 60/52/60 
f 25/53/25 26/54/26 62/54/62 61/53/61 
f 26/54/26 27/55/27 63/55/63 62/54/62 
f 27/55/27 28/56/28 64/56/64 63/55/63 
f 28/56/28 29/57/29 65/57/65 64/56/64 
f 29/57/29 30/58/30 66/58/66 65/57/65 
f 30/58/30 31/59/31 67/59/67 66/58/66 
f 31/59/31 32/60/32 68/60/68 67/59/67 
f 32/60/32 33/61/33 69/61/69 68/60/68 
f 33/61/33 34/62/34 70/62/70 69/61/69 
f 34/62/34 35/63/35 71/63/71 70/62/70 
f 35/63/35 36/51/36 72/51/72 71/63/71 
f 36/51/36 20/20/20 56/20/56 72/51/72 
f 56/20/56 55/19/55 39/19/39 38/20/38 
f 55/19/55 57/21/57 40/21/40 39/19/39 
f 57/21/57 58/22/58 41/22/41 40/21/40 
f 58/22/58 59/23/59 42/23/42 41/22/41 
f 59/23/59 60/52/60 43/52/43 42/23/42 
f 60/52/60 61/53/61 44/53/44 43/52/43 
f 61/53/61 62/54/62 45/54/45 44/53/44 
f 62/54/62 63/55/63 46/55/46 45/54/45 
f 63/55/63 64/56/64 47/56/47 46/55/46 
f 64/56/64 65/57/65 48/57/48 47/56/47 
f 65/57/65 66/58/66 49/58/49 48/57/48 
f 66/58/66 67/59/67 50/59/50 49/58/49 
f 67/59/67 68/60/68 51/60/51 50/59/50 
f 68/60/68 69/61/69 52/61/52 51/60/51 
f 69/61/69 70/62/70 53/62/53 52/61/52 
f 70/62/70 71/63/71 54/63/54 53/62/53 
f 71/63/71 72/51/72 37/51/37 54/63/54 
f 72/51/72 56/20/56 38/20/38 37/51/37 
# 56 polygons

