# 3ds Max Wavefront OBJ Exporter v0.99 - (c)2007 guruware
# File Created: 10.11.2024 23:40:10

mtllib basket.mtl

#
# object Cylinder001
#

v  7.6604 0.0000 6.4279
v  5.0000 0.0000 8.6603
v  1.7365 0.0000 9.8481
v  -1.7365 0.0000 9.8481
v  -5.0000 0.0000 8.6603
v  -7.6604 0.0000 6.4279
v  -9.3969 0.0000 3.4202
v  -10.0000 0.0000 -0.0000
v  -9.3969 0.0000 -3.4202
v  -7.6604 0.0000 -6.4279
v  -5.0000 0.0000 -8.6603
v  -1.7365 0.0000 -9.8481
v  1.7365 0.0000 -9.8481
v  5.0000 0.0000 -8.6603
v  7.6604 0.0000 -6.4279
v  9.3969 0.0000 -3.4202
v  10.0000 0.0000 -0.0000
v  9.3969 0.0000 3.4202
v  11.9548 5.0000 -3.4202
v  12.5579 5.0000 -0.0000
v  10.2184 5.0000 -6.4279
v  7.5579 5.0000 -8.6603
v  1.7365 5.0000 -10.3676
v  -1.7365 5.0000 -10.3676
v  -7.5579 5.0000 -8.6603
v  -10.2184 5.0000 -6.4279
v  -11.9548 5.0000 -3.4202
v  -12.5579 5.0000 -0.0000
v  -11.9548 5.0000 3.4202
v  -10.2184 5.0000 6.4279
v  -7.5579 5.0000 8.6603
v  -1.7365 5.0000 10.3676
v  1.7365 5.0000 10.3676
v  7.5579 5.0000 8.6603
v  10.2184 5.0000 6.4279
v  11.9548 5.0000 3.4202
v  9.2534 0.3432 -0.0000
v  8.6953 0.3432 -3.1648
v  7.0885 0.3432 -5.9479
v  4.6267 0.3432 -8.0137
v  1.6068 0.3432 -9.1128
v  -1.6068 0.3432 -9.1128
v  -4.6267 0.3432 -8.0136
v  -7.0885 0.3432 -5.9479
v  -8.6953 0.3432 -3.1648
v  -9.2534 0.3432 -0.0000
v  -8.6953 0.3432 3.1648
v  -7.0885 0.3432 5.9479
v  -4.6267 0.3432 8.0136
v  -1.6068 0.3432 9.1128
v  1.6068 0.3432 9.1128
v  4.6267 0.3432 8.0137
v  7.0885 0.3432 5.9480
v  8.6953 0.3432 3.1648
v  11.2532 4.5098 -3.1648
v  11.8113 4.5098 -0.0000
v  9.6464 4.5098 -5.9479
v  7.1846 4.5098 -8.0137
v  1.6068 4.5098 -9.6324
v  -1.6068 4.5098 -9.6324
v  -7.1846 4.5098 -8.0136
v  -9.6464 4.5098 -5.9479
v  -11.2532 4.5098 -3.1648
v  -11.8113 4.5098 -0.0000
v  -11.2532 4.5098 3.1648
v  -9.6464 4.5098 5.9479
v  -7.1846 4.5098 8.0136
v  -1.6068 4.5098 9.6324
v  1.6068 4.5098 9.6324
v  7.1846 4.5098 8.0137
v  9.6464 4.5098 5.9480
v  11.2532 4.5098 3.1648
# 72 vertices

vn 0.0000 -1.0000 -0.0000
vn 0.8903 -0.4554 0.0000
vn 0.8421 -0.4308 -0.3244
vn 0.8509 -0.4353 -0.2942
vn 0.6947 -0.3554 -0.6254
vn 0.7289 -0.3729 -0.5741
vn 0.4306 -0.1973 -0.8807
vn 0.4997 -0.2557 -0.8276
vn 0.1747 -0.1018 -0.9793
vn 0.1517 -0.1155 -0.9817
vn -0.1564 -0.1192 -0.9805
vn -0.1401 -0.1023 -0.9848
vn -0.4470 -0.2287 -0.8648
vn -0.5077 -0.2493 -0.8247
vn -0.6947 -0.3554 -0.6254
vn -0.7289 -0.3729 -0.5741
vn -0.8421 -0.4308 -0.3244
vn -0.8509 -0.4353 -0.2942
vn -0.8903 -0.4554 -0.0000
vn -0.8421 -0.4308 0.3244
vn -0.8509 -0.4353 0.2942
vn -0.6947 -0.3554 0.6254
vn -0.7289 -0.3729 0.5741
vn -0.4306 -0.1973 0.8807
vn -0.4997 -0.2557 0.8276
vn -0.1747 -0.1018 0.9793
vn -0.1517 -0.1155 0.9817
vn 0.1564 -0.1192 0.9805
vn 0.1401 -0.1023 0.9848
vn 0.4470 -0.2287 0.8648
vn 0.5077 -0.2493 0.8247
vn 0.6947 -0.3554 0.6254
vn 0.7289 -0.3729 0.5741
vn 0.8421 -0.4308 0.3244
vn 0.8509 -0.4353 0.2942
vn 0.0000 1.0000 -0.0000
vn -0.5463 0.8321 0.0963
vn -0.4804 0.8321 0.2773
vn -0.4804 0.8321 0.2774
vn -0.3566 0.8321 0.4249
vn -0.1551 0.8344 0.5289
vn -0.1561 0.8284 0.5379
vn 0.0000 0.8321 0.5547
vn 0.1576 0.8286 0.5372
vn 0.1536 0.8345 0.5292
vn 0.3566 0.8321 0.4249
vn 0.4804 0.8321 0.2774
vn 0.5463 0.8321 0.0963
vn 0.5463 0.8321 -0.0963
vn 0.4804 0.8321 -0.2773
vn 0.4804 0.8321 -0.2774
vn 0.3566 0.8321 -0.4249
vn 0.1551 0.8344 -0.5289
vn 0.1561 0.8284 -0.5379
vn 0.0000 0.8321 -0.5547
vn -0.1576 0.8286 -0.5372
vn -0.1536 0.8345 -0.5292
vn -0.3566 0.8321 -0.4249
vn -0.4804 0.8321 -0.2774
vn -0.5463 0.8321 -0.0963
vn -0.8428 0.5174 0.1486
vn -0.7647 0.4694 0.4415
vn -0.5979 0.3671 0.7126
vn -0.2767 0.1189 0.9536
vn -0.3347 0.2055 0.9196
vn 0.0000 0.1237 0.9923
vn 0.2747 0.1686 0.9466
vn 0.3397 0.1164 0.9333
vn 0.5979 0.3671 0.7126
vn 0.7647 0.4694 0.4415
vn 0.8428 0.5174 0.1486
vn 0.8428 0.5174 -0.1486
vn 0.7647 0.4694 -0.4415
vn 0.5979 0.3671 -0.7126
vn 0.2767 0.1189 -0.9536
vn 0.3347 0.2055 -0.9196
vn 0.0000 0.1237 -0.9923
vn -0.2747 0.1686 -0.9466
vn -0.3397 0.1164 -0.9333
vn -0.5979 0.3671 -0.7126
vn -0.7647 0.4694 -0.4415
vn -0.8428 0.5174 -0.1486
# 82 vertex normals

vt 0.1953 0.0000 -0.3473
vt 0.0874 0.0000 -0.6527
vt 0.0292 0.0000 -0.8794
vt 0.0278 0.0000 -1.0000
vt 0.0833 0.0000 -1.0000
vt 0.1891 0.0000 -0.8794
vt 0.3325 0.0000 -0.6527
vt 0.4960 0.0000 -0.3473
vt 0.6600 0.0000 0.0000
vt 0.8047 0.0000 0.3473
vt 0.9126 0.0000 0.6527
vt 0.9708 0.0000 0.8794
vt 0.9722 0.0000 1.0000
vt 0.9167 0.0000 1.0000
vt 0.8611 0.0000 1.0000
vt 0.8056 0.0000 1.0000
vt 0.7500 0.0000 1.0000
vt 0.3400 0.0000 -0.0000
vt 0.8056 1.0000 1.0000
vt 0.7500 1.0000 1.0000
vt 0.8611 1.0000 1.0000
vt 0.9167 1.0000 1.0000
vt 0.9722 1.0000 1.0000
vt -0.0278 0.0000 1.0000
vt 0.0278 0.0000 1.0000
vt 0.0278 1.0000 1.0000
vt -0.0278 1.0000 1.0000
vt 0.0833 0.0000 1.0000
vt 0.0833 1.0000 1.0000
vt 0.1389 0.0000 1.0000
vt 0.1389 1.0000 1.0000
vt 0.1944 0.0000 1.0000
vt 0.1944 1.0000 1.0000
vt 0.2500 0.0000 1.0000
vt 0.2500 1.0000 1.0000
vt 0.3056 0.0000 1.0000
vt 0.3056 1.0000 1.0000
vt 0.3611 0.0000 1.0000
vt 0.3611 1.0000 1.0000
vt 0.4167 0.0000 1.0000
vt 0.4167 1.0000 1.0000
vt 0.4722 0.0000 1.0000
vt 0.4722 1.0000 1.0000
vt 0.5278 0.0000 1.0000
vt 0.5278 1.0000 1.0000
vt 0.5833 0.0000 1.0000
vt 0.5833 1.0000 1.0000
vt 0.6389 0.0000 1.0000
vt 0.6389 1.0000 1.0000
vt 0.6944 0.0000 1.0000
vt 0.6944 1.0000 1.0000
vt 0.9708 1.0000 0.8794
vt 0.9126 1.0000 0.6527
vt 0.8047 1.0000 0.3473
vt 0.6600 1.0000 0.0000
vt 0.4960 1.0000 -0.3473
vt 0.3325 1.0000 -0.6527
vt 0.1891 1.0000 -0.8794
vt 0.0833 1.0000 -1.0000
vt 0.0278 1.0000 -1.0000
vt 0.0292 1.0000 -0.8794
vt 0.0874 1.0000 -0.6527
vt 0.1953 1.0000 -0.3473
# 63 texture coords

o Cylinder001
g Cylinder001
usemtl wire_086086086
s 1
f 1/1/1 2/2/1 3/3/1 
f 3/3/1 4/4/1 5/5/1 
f 5/5/1 6/6/1 7/7/1 
f 3/3/1 5/5/1 7/7/1 
f 7/7/1 8/8/1 9/9/1 
f 9/9/1 10/10/1 11/11/1 
f 7/7/1 9/9/1 11/11/1 
f 11/11/1 12/12/1 13/13/1 
f 13/13/1 14/14/1 15/15/1 
f 11/11/1 13/13/1 15/15/1 
f 7/7/1 11/11/1 15/15/1 
f 3/3/1 7/7/1 15/15/1 
f 15/15/1 16/16/1 17/17/1 
f 3/3/1 15/15/1 17/17/1 
f 1/1/1 3/3/1 17/17/1 
f 18/18/1 1/1/1 17/17/1 
s 8
f 17/17/2 16/16/3 19/19/4 
f 19/19/4 20/20/2 17/17/2 
f 16/16/3 15/15/5 21/21/6 
f 21/21/6 19/19/4 16/16/3 
f 15/15/5 14/14/7 22/22/8 
f 22/22/8 21/21/6 15/15/5 
f 14/14/7 13/13/9 23/23/10 
f 23/23/10 22/22/8 14/14/7 
f 13/24/9 12/25/11 24/26/12 
f 24/26/12 23/27/10 13/24/9 
f 12/25/11 11/28/13 25/29/14 
f 25/29/14 24/26/12 12/25/11 
f 11/28/13 10/30/15 26/31/16 
f 26/31/16 25/29/14 11/28/13 
f 10/30/15 9/32/17 27/33/18 
f 27/33/18 26/31/16 10/30/15 
f 9/32/17 8/34/19 28/35/19 
f 28/35/19 27/33/18 9/32/17 
f 8/34/19 7/36/20 29/37/21 
f 29/37/21 28/35/19 8/34/19 
f 7/36/20 6/38/22 30/39/23 
f 30/39/23 29/37/21 7/36/20 
f 6/38/22 5/40/24 31/41/25 
f 31/41/25 30/39/23 6/38/22 
f 5/40/24 4/42/26 32/43/27 
f 32/43/27 31/41/25 5/40/24 
f 4/42/26 3/44/28 33/45/29 
f 33/45/29 32/43/27 4/42/26 
f 3/44/28 2/46/30 34/47/31 
f 34/47/31 33/45/29 3/44/28 
f 2/46/30 1/48/32 35/49/33 
f 35/49/33 34/47/31 2/46/30 
f 1/48/32 18/50/34 36/51/35 
f 36/51/35 35/49/33 1/48/32 
f 18/50/34 17/17/2 20/20/2 
f 20/20/2 36/51/35 18/50/34 
s 1
f 37/20/36 38/19/36 39/21/36 
f 39/21/36 40/22/36 41/23/36 
f 41/23/36 42/52/36 43/53/36 
f 39/21/36 41/23/36 43/53/36 
f 43/53/36 44/54/36 45/55/36 
f 45/55/36 46/56/36 47/57/36 
f 43/53/36 45/55/36 47/57/36 
f 47/57/36 48/58/36 49/59/36 
f 49/59/36 50/60/36 51/61/36 
f 47/57/36 49/59/36 51/61/36 
f 43/53/36 47/57/36 51/61/36 
f 39/21/36 43/53/36 51/61/36 
f 51/61/36 52/62/36 53/63/36 
f 39/21/36 51/61/36 53/63/36 
f 37/20/36 39/21/36 53/63/36 
f 54/51/36 37/20/36 53/63/36 
s off
f 20/20/37 19/19/37 55/19/37 
f 55/19/37 56/20/37 20/20/37 
f 19/19/38 21/21/38 57/21/38 
f 57/21/39 55/19/39 19/19/39 
f 21/21/40 22/22/40 58/22/40 
f 58/22/40 57/21/40 21/21/40 
f 22/22/41 23/23/41 59/23/41 
f 59/23/42 58/22/42 22/22/42 
f 23/23/43 24/52/43 60/52/43 
f 60/52/43 59/23/43 23/23/43 
f 24/52/44 25/53/44 61/53/44 
f 61/53/45 60/52/45 24/52/45 
f 25/53/46 26/54/46 62/54/46 
f 62/54/46 61/53/46 25/53/46 
f 26/54/47 27/55/47 63/55/47 
f 63/55/47 62/54/47 26/54/47 
f 27/55/48 28/56/48 64/56/48 
f 64/56/48 63/55/48 27/55/48 
f 28/56/49 29/57/49 65/57/49 
f 65/57/49 64/56/49 28/56/49 
f 29/57/50 30/58/50 66/58/50 
f 66/58/51 65/57/51 29/57/51 
f 30/58/52 31/59/52 67/59/52 
f 67/59/52 66/58/52 30/58/52 
f 31/59/53 32/60/53 68/60/53 
f 68/60/54 67/59/54 31/59/54 
f 32/60/55 33/61/55 69/61/55 
f 69/61/55 68/60/55 32/60/55 
f 33/61/56 34/62/56 70/62/56 
f 70/62/57 69/61/57 33/61/57 
f 34/62/58 35/63/58 71/63/58 
f 71/63/58 70/62/58 34/62/58 
f 35/63/59 36/51/59 72/51/59 
f 72/51/59 71/63/59 35/63/59 
f 36/51/60 20/20/60 56/20/60 
f 56/20/60 72/51/60 36/51/60 
f 56/20/61 55/19/61 38/19/61 
f 38/19/61 37/20/61 56/20/61 
f 55/19/62 57/21/62 39/21/62 
f 39/21/62 38/19/62 55/19/62 
f 57/21/63 58/22/63 40/22/63 
f 40/22/63 39/21/63 57/21/63 
f 58/22/64 59/23/64 41/23/64 
f 41/23/65 40/22/65 58/22/65 
f 59/23/66 60/52/66 42/52/66 
f 42/52/66 41/23/66 59/23/66 
f 60/52/67 61/53/67 43/53/67 
f 43/53/68 42/52/68 60/52/68 
f 61/53/69 62/54/69 44/54/69 
f 44/54/69 43/53/69 61/53/69 
f 62/54/70 63/55/70 45/55/70 
f 45/55/70 44/54/70 62/54/70 
f 63/55/71 64/56/71 46/56/71 
f 46/56/71 45/55/71 63/55/71 
f 64/56/72 65/57/72 47/57/72 
f 47/57/72 46/56/72 64/56/72 
f 65/57/73 66/58/73 48/58/73 
f 48/58/73 47/57/73 65/57/73 
f 66/58/74 67/59/74 49/59/74 
f 49/59/74 48/58/74 66/58/74 
f 67/59/75 68/60/75 50/60/75 
f 50/60/76 49/59/76 67/59/76 
f 68/60/77 69/61/77 51/61/77 
f 51/61/77 50/60/77 68/60/77 
f 69/61/78 70/62/78 52/62/78 
f 52/62/79 51/61/79 69/61/79 
f 70/62/80 71/63/80 53/63/80 
f 53/63/80 52/62/80 70/62/80 
f 71/63/81 72/51/81 54/51/81 
f 54/51/81 53/63/81 71/63/81 
f 72/51/82 56/20/82 37/20/82 
f 37/20/82 54/51/82 72/51/82 
# 140 faces

