# 3ds Max Wavefront OBJ Exporter v0.99 - (c)2007 guruware
# File Created: 13.11.2024 00:58:25

mtllib box.mtl

#
# object Box001
#

v  0.0000 -10.0000 -5.0000
v  0.0000 -10.0000 -0.0000
v  -5.0000 -10.0000 -0.0000
v  -5.0000 -10.0000 -5.0000
v  0.0000 10.0000 -5.0000
v  0.0000 10.0000 -0.0000
v  5.0000 10.0000 -0.0000
v  5.0000 10.0000 -5.0000
v  5.0000 0.0000 10.0000
v  0.0000 0.0000 10.0000
v  0.0000 -5.0000 10.0000
v  5.0000 -5.0000 10.0000
v  10.0000 0.0000 -5.0000
v  10.0000 0.0000 -0.0000
v  10.0000 -5.0000 -0.0000
v  10.0000 -5.0000 -5.0000
v  -5.0000 0.0000 -10.0000
v  0.0000 0.0000 -10.0000
v  0.0000 -5.0000 -10.0000
v  -5.0000 -5.0000 -10.0000
v  -10.0000 0.0000 5.0000
v  -10.0000 0.0000 -0.0000
v  -10.0000 -5.0000 -0.0000
v  -10.0000 -5.0000 5.0000
v  5.0000 10.0000 10.0000
v  0.0000 10.0000 10.0000
v  0.0000 5.0000 10.0000
v  5.0000 5.0000 10.0000
v  -5.0000 -10.0000 10.0000
v  0.0000 -10.0000 10.0000
v  -5.0000 -5.0000 10.0000
v  10.0000 10.0000 -5.0000
v  10.0000 10.0000 -0.0000
v  10.0000 5.0000 -0.0000
v  10.0000 5.0000 -5.0000
v  10.0000 -10.0000 5.0000
v  10.0000 -10.0000 -0.0000
v  10.0000 -5.0000 5.0000
v  -5.0000 10.0000 -10.0000
v  0.0000 10.0000 -10.0000
v  0.0000 5.0000 -10.0000
v  -5.0000 5.0000 -10.0000
v  5.0000 -10.0000 -10.0000
v  0.0000 -10.0000 -10.0000
v  5.0000 -5.0000 -10.0000
v  -10.0000 10.0000 5.0000
v  -10.0000 10.0000 -0.0000
v  -10.0000 5.0000 -0.0000
v  -10.0000 5.0000 5.0000
v  -10.0000 -10.0000 -5.0000
v  -10.0000 -10.0000 -0.0000
v  -10.0000 -5.0000 -5.0000
v  10.0000 -10.0000 -5.0000
v  5.0000 -10.0000 -0.0000
v  5.0000 -10.0000 -5.0000
v  -10.0000 -10.0000 5.0000
v  -5.0000 -10.0000 5.0000
v  -10.0000 10.0000 -5.0000
v  -5.0000 10.0000 -0.0000
v  -5.0000 10.0000 -5.0000
v  10.0000 10.0000 5.0000
v  5.0000 10.0000 5.0000
v  -10.0000 0.0000 10.0000
v  -10.0000 -5.0000 10.0000
v  -5.0000 0.0000 10.0000
v  10.0000 -5.0000 10.0000
v  10.0000 0.0000 10.0000
v  10.0000 0.0000 -10.0000
v  10.0000 -5.0000 -10.0000
v  5.0000 0.0000 -10.0000
v  -10.0000 -5.0000 -10.0000
v  -10.0000 0.0000 -10.0000
v  -10.0000 10.0000 10.0000
v  -10.0000 5.0000 10.0000
v  -5.0000 5.0000 10.0000
v  -5.0000 10.0000 10.0000
v  10.0000 5.0000 10.0000
v  10.0000 10.0000 10.0000
v  10.0000 -10.0000 10.0000
v  5.0000 -10.0000 10.0000
v  -10.0000 -10.0000 10.0000
v  10.0000 10.0000 -10.0000
v  10.0000 5.0000 -10.0000
v  5.0000 5.0000 -10.0000
v  5.0000 10.0000 -10.0000
v  -10.0000 5.0000 -10.0000
v  -10.0000 10.0000 -10.0000
v  -10.0000 -10.0000 -10.0000
v  -5.0000 -10.0000 -10.0000
v  10.0000 -10.0000 -10.0000
v  0.0000 -10.0000 5.0000
v  0.0000 10.0000 5.0000
v  10.0000 0.0000 5.0000
v  -10.0000 0.0000 -5.0000
v  10.0000 5.0000 5.0000
v  -10.0000 5.0000 -5.0000
v  5.0000 -10.0000 5.0000
v  -5.0000 10.0000 5.0000
# 98 vertices

vn 0.0000 -1.0000 -0.0000
vn 0.0000 1.0000 -0.0000
vn 0.0000 0.0000 1.0000
vn 1.0000 0.0000 -0.0000
vn 0.0000 0.0000 -1.0000
vn -1.0000 0.0000 -0.0000
vn -0.5774 0.5774 0.5774
vn 0.5774 0.5774 0.5774
vn 0.5774 -0.5774 0.5774
vn -0.5774 -0.5774 0.5774
vn 0.5774 0.5774 -0.5774
vn -0.5774 0.5774 -0.5774
vn -0.5774 -0.5774 -0.5774
vn 0.5774 -0.5774 -0.5774
# 14 vertex normals

vt 0.5000 0.7500 0.0000
vt 0.5000 0.5000 0.0000
vt 0.7500 0.5000 0.0000
vt 0.7500 0.7500 0.0000
vt 0.5000 0.2500 0.0000
vt 0.7500 0.2500 0.0000
vt 0.7500 1.0000 0.0000
vt 0.5000 1.0000 0.0000
vt 0.2500 0.0000 0.0000
vt 0.5000 0.0000 0.0000
vt 0.2500 0.2500 0.0000
vt 0.0000 0.7500 0.0000
vt 0.0000 0.5000 0.0000
vt 0.2500 0.5000 0.0000
vt 0.2500 0.7500 0.0000
vt 1.0000 0.2500 0.0000
vt 1.0000 0.5000 0.0000
vt 0.0000 0.2500 0.0000
vt 0.0000 1.0000 0.0000
vt 0.2500 1.0000 0.0000
vt 1.0000 0.7500 0.0000
vt 1.0000 1.0000 0.0000
vt 1.0000 0.0000 0.0000
vt 0.7500 0.0000 0.0000
vt 0.0000 0.0000 0.0000
# 25 texture coords

o Box001
g Box001
usemtl wire_008008136
s 2
f 1/1/1 2/2/1 3/3/1 
f 3/3/1 4/4/1 1/1/1 
s 4
f 5/1/2 6/2/2 7/3/2 
f 7/3/2 8/4/2 5/1/2 
s 8
f 9/3/3 10/2/3 11/5/3 
f 11/5/3 12/6/3 9/3/3 
s 16
f 13/3/4 14/2/4 15/5/4 
f 15/5/4 16/6/4 13/3/4 
s 32
f 17/3/5 18/2/5 19/5/5 
f 19/5/5 20/6/5 17/3/5 
s 64
f 21/3/6 22/2/6 23/5/6 
f 23/5/6 24/6/6 21/3/6 
s 8
f 25/7/3 26/8/3 27/1/3 
f 27/1/3 28/4/3 25/7/3 
f 28/4/3 27/1/3 10/2/3 
f 10/2/3 9/3/3 28/4/3 
f 29/9/3 30/10/3 11/5/3 
f 11/5/3 31/11/3 29/9/3 
s 16
f 32/7/4 33/8/4 34/1/4 
f 34/1/4 35/4/4 32/7/4 
f 35/4/4 34/1/4 14/2/4 
f 14/2/4 13/3/4 35/4/4 
f 36/9/4 37/10/4 15/5/4 
f 15/5/4 38/11/4 36/9/4 
s 32
f 39/7/5 40/8/5 41/1/5 
f 41/1/5 42/4/5 39/7/5 
f 42/4/5 41/1/5 18/2/5 
f 18/2/5 17/3/5 42/4/5 
f 43/9/5 44/10/5 19/5/5 
f 19/5/5 45/11/5 43/9/5 
s 64
f 46/7/6 47/8/6 48/1/6 
f 48/1/6 49/4/6 46/7/6 
f 49/4/6 48/1/6 22/2/6 
f 22/2/6 21/3/6 49/4/6 
f 50/9/6 51/10/6 23/5/6 
f 23/5/6 52/11/6 50/9/6 
s 2
f 53/12/1 37/13/1 54/14/1 
f 54/14/1 55/15/1 53/12/1 
f 55/15/1 54/14/1 2/2/1 
f 2/2/1 1/1/1 55/15/1 
f 56/16/1 51/17/1 3/3/1 
f 3/3/1 57/6/1 56/16/1 
s 4
f 58/12/2 47/13/2 59/14/2 
f 59/14/2 60/15/2 58/12/2 
f 60/15/2 59/14/2 6/2/2 
f 6/2/2 5/1/2 60/15/2 
f 61/16/2 33/17/2 7/3/2 
f 7/3/2 62/6/2 61/16/2 
s 8
f 63/13/3 64/18/3 31/11/3 
f 31/11/3 65/14/3 63/13/3 
f 65/14/3 31/11/3 11/5/3 
f 11/5/3 10/2/3 65/14/3 
f 9/3/3 12/6/3 66/16/3 
f 66/16/3 67/17/3 9/3/3 
s 32
f 68/13/5 69/18/5 45/11/5 
f 45/11/5 70/14/5 68/13/5 
f 70/14/5 45/11/5 19/5/5 
f 19/5/5 18/2/5 70/14/5 
f 17/3/5 20/6/5 71/16/5 
f 71/16/5 72/17/5 17/3/5 
s 8
f 73/19/7 74/12/3 75/15/3 
f 75/15/3 76/20/3 73/19/7 
f 76/20/3 75/15/3 27/1/3 
f 27/1/3 26/8/3 76/20/3 
f 25/7/3 28/4/3 77/21/3 
f 77/21/3 78/22/8 25/7/3 
f 74/12/3 63/13/3 65/14/3 
f 65/14/3 75/15/3 74/12/3 
f 75/15/3 65/14/3 10/2/3 
f 10/2/3 27/1/3 75/15/3 
f 28/4/3 9/3/3 67/17/3 
f 67/17/3 77/21/3 28/4/3 
f 79/23/9 66/16/3 12/6/3 
f 12/6/3 80/24/3 79/23/9 
f 80/24/3 12/6/3 11/5/3 
f 11/5/3 30/10/3 80/24/3 
f 29/9/3 31/11/3 64/18/3 
f 64/18/3 81/25/10 29/9/3 
s 32
f 82/19/11 83/12/5 84/15/5 
f 84/15/5 85/20/5 82/19/11 
f 85/20/5 84/15/5 41/1/5 
f 41/1/5 40/8/5 85/20/5 
f 39/7/5 42/4/5 86/21/5 
f 86/21/5 87/22/12 39/7/5 
f 83/12/5 68/13/5 70/14/5 
f 70/14/5 84/15/5 83/12/5 
f 84/15/5 70/14/5 18/2/5 
f 18/2/5 41/1/5 84/15/5 
f 42/4/5 17/3/5 72/17/5 
f 72/17/5 86/21/5 42/4/5 
f 88/23/13 71/16/5 20/6/5 
f 20/6/5 89/24/5 88/23/13 
f 89/24/5 20/6/5 19/5/5 
f 19/5/5 44/10/5 89/24/5 
f 43/9/5 45/11/5 69/18/5 
f 69/18/5 90/25/14 43/9/5 
s 2
f 30/10/1 29/24/1 57/6/1 
f 57/6/1 91/5/1 30/10/1 
f 91/5/1 57/6/1 3/3/1 
f 3/3/1 2/2/1 91/5/1 
f 1/1/1 4/4/1 89/7/1 
f 89/7/1 44/8/1 1/1/1 
s 4
f 26/10/2 25/24/2 62/6/2 
f 62/6/2 92/5/2 26/10/2 
f 92/5/2 62/6/2 7/3/2 
f 7/3/2 6/2/2 92/5/2 
f 5/1/2 8/4/2 85/7/2 
f 85/7/2 40/8/2 5/1/2 
s 16
f 67/13/4 66/18/4 38/11/4 
f 38/11/4 93/14/4 67/13/4 
f 93/14/4 38/11/4 15/5/4 
f 15/5/4 14/2/4 93/14/4 
f 13/3/4 16/6/4 69/16/4 
f 69/16/4 68/17/4 13/3/4 
s 64
f 72/13/6 71/18/6 52/11/6 
f 52/11/6 94/14/6 72/13/6 
f 94/14/6 52/11/6 23/5/6 
f 23/5/6 22/2/6 94/14/6 
f 21/3/6 24/6/6 64/16/6 
f 64/16/6 63/17/6 21/3/6 
s 16
f 78/19/8 77/12/4 95/15/4 
f 95/15/4 61/20/4 78/19/8 
f 61/20/4 95/15/4 34/1/4 
f 34/1/4 33/8/4 61/20/4 
f 32/7/4 35/4/4 83/21/4 
f 83/21/4 82/22/11 32/7/4 
f 77/12/4 67/13/4 93/14/4 
f 93/14/4 95/15/4 77/12/4 
f 95/15/4 93/14/4 14/2/4 
f 14/2/4 34/1/4 95/15/4 
f 35/4/4 13/3/4 68/17/4 
f 68/17/4 83/21/4 35/4/4 
f 90/23/14 69/16/4 16/6/4 
f 16/6/4 53/24/4 90/23/14 
f 53/24/4 16/6/4 15/5/4 
f 15/5/4 37/10/4 53/24/4 
f 36/9/4 38/11/4 66/18/4 
f 66/18/4 79/25/9 36/9/4 
s 64
f 87/19/12 86/12/6 96/15/6 
f 96/15/6 58/20/6 87/19/12 
f 58/20/6 96/15/6 48/1/6 
f 48/1/6 47/8/6 58/20/6 
f 46/7/6 49/4/6 74/21/6 
f 74/21/6 73/22/7 46/7/6 
f 86/12/6 72/13/6 94/14/6 
f 94/14/6 96/15/6 86/12/6 
f 96/15/6 94/14/6 22/2/6 
f 22/2/6 48/1/6 96/15/6 
f 49/4/6 21/3/6 63/17/6 
f 63/17/6 74/21/6 49/4/6 
f 81/23/10 64/16/6 24/6/6 
f 24/6/6 56/24/6 81/23/10 
f 56/24/6 24/6/6 23/5/6 
f 23/5/6 51/10/6 56/24/6 
f 50/9/6 52/11/6 71/18/6 
f 71/18/6 88/25/13 50/9/6 
s 2
f 79/25/9 80/9/1 97/11/1 
f 97/11/1 36/18/1 79/25/9 
f 36/18/1 97/11/1 54/14/1 
f 54/14/1 37/13/1 36/18/1 
f 53/12/1 55/15/1 43/20/1 
f 43/20/1 90/19/14 53/12/1 
f 80/9/1 30/10/1 91/5/1 
f 91/5/1 97/11/1 80/9/1 
f 97/11/1 91/5/1 2/2/1 
f 2/2/1 54/14/1 97/11/1 
f 55/15/1 1/1/1 44/8/1 
f 44/8/1 43/20/1 55/15/1 
f 88/22/13 89/7/1 4/4/1 
f 4/4/1 50/21/1 88/22/13 
f 50/21/1 4/4/1 3/3/1 
f 3/3/1 51/17/1 50/21/1 
f 56/16/1 57/6/1 29/24/1 
f 29/24/1 81/23/10 56/16/1 
s 4
f 73/25/7 76/9/2 98/11/2 
f 98/11/2 46/18/2 73/25/7 
f 46/18/2 98/11/2 59/14/2 
f 59/14/2 47/13/2 46/18/2 
f 58/12/2 60/15/2 39/20/2 
f 39/20/2 87/19/12 58/12/2 
f 76/9/2 26/10/2 92/5/2 
f 92/5/2 98/11/2 76/9/2 
f 98/11/2 92/5/2 6/2/2 
f 6/2/2 59/14/2 98/11/2 
f 60/15/2 5/1/2 40/8/2 
f 40/8/2 39/20/2 60/15/2 
f 82/22/11 85/7/2 8/4/2 
f 8/4/2 32/21/2 82/22/11 
f 32/21/2 8/4/2 7/3/2 
f 7/3/2 33/17/2 32/21/2 
f 61/16/2 62/6/2 25/24/2 
f 25/24/2 78/23/8 61/16/2 
# 192 faces

