# 3ds Max Wavefront OBJ Exporter v0.99 - (c)2007 guruware
# File Created: 13.11.2024 00:44:37

mtllib Cylinder3.mtl

#
# object Cylinder001
#

v  7.0711 0.0000 7.0711
v  3.8268 0.0000 9.2388
v  0.0000 0.0000 10.0000
v  -0.0000 0.0000 -10.0000
v  3.8268 0.0000 -9.2388
v  7.0711 0.0000 -7.0711
v  9.2388 0.0000 -3.8268
v  10.0000 0.0000 -0.0000
v  9.2388 0.0000 3.8268
v  9.2388 4.0000 -3.8268
v  10.0000 4.0000 -0.0000
v  7.0711 4.0000 -7.0711
v  3.8268 4.0000 -9.2388
v  -0.0000 4.0000 -10.0000
v  3.8268 4.0000 9.2388
v  0.0000 4.0000 10.0000
v  7.0711 4.0000 7.0711
v  9.2388 4.0000 3.8268
v  9.2388 8.0000 -3.8268
v  10.0000 8.0000 -0.0000
v  7.0711 8.0000 -7.0711
v  3.8268 8.0000 -9.2388
v  -0.0000 8.0000 -10.0000
v  3.8268 8.0000 9.2388
v  0.0000 8.0000 10.0000
v  7.0711 8.0000 7.0711
v  9.2388 8.0000 3.8268
v  9.2388 12.0000 -3.8268
v  10.0000 12.0000 -0.0000
v  7.0711 12.0000 -7.0711
v  3.8268 12.0000 -9.2388
v  -0.0000 12.0000 -10.0000
v  3.8268 12.0000 9.2388
v  0.0000 12.0000 10.0000
v  7.0711 12.0000 7.0711
v  9.2388 12.0000 3.8268
v  9.2388 16.0000 -3.8268
v  10.0000 16.0000 -0.0000
v  7.0711 16.0000 -7.0711
v  3.8268 16.0000 -9.2388
v  -0.0000 16.0000 -10.0000
v  3.8268 16.0000 9.2388
v  0.0000 16.0000 10.0000
v  7.0711 16.0000 7.0711
v  9.2388 16.0000 3.8268
v  9.2388 20.0000 -3.8268
v  10.0000 20.0000 -0.0000
v  7.0711 20.0000 -7.0711
v  3.8268 20.0000 -9.2388
v  -0.0000 20.0000 -10.0000
v  3.8268 20.0000 9.2388
v  0.0000 20.0000 10.0000
v  7.0711 20.0000 7.0711
v  9.2388 20.0000 3.8268
# 54 vertices

vn 0.0000 -1.0000 -0.0000
vn 1.0000 0.0000 -0.0000
vn 0.9239 0.0000 -0.3827
vn 0.7071 0.0000 -0.7071
vn 0.3827 0.0000 -0.9239
vn 0.1951 0.0000 -0.9808
vn 0.1951 0.0000 0.9808
vn 0.3827 0.0000 0.9239
vn 0.7071 0.0000 0.7071
vn 0.9239 0.0000 0.3827
vn 0.0000 1.0000 -0.0000
vn -1.0000 0.0000 0.0000
# 12 vertex normals

vt 0.2621 0.0000 -0.1989
vt 0.1367 0.0000 -0.5665
vt 0.0666 0.0000 -0.8478
vt 0.9334 0.0000 0.8478
vt 0.9375 0.0000 1.0000
vt 0.8750 0.0000 1.0000
vt 0.8125 0.0000 1.0000
vt 0.7500 0.0000 1.0000
vt 0.4237 0.0000 0.1989
vt 0.8125 0.2000 1.0000
vt 0.7500 0.2000 1.0000
vt 0.8750 0.2000 1.0000
vt 0.9375 0.2000 1.0000
vt -0.0625 0.0000 1.0000
vt 0.0000 0.0000 1.0000
vt 0.0000 0.2000 1.0000
vt -0.0625 0.2000 1.0000
vt 0.5000 0.0000 1.0000
vt 0.5625 0.0000 1.0000
vt 0.5625 0.2000 1.0000
vt 0.5000 0.2000 1.0000
vt 0.6250 0.0000 1.0000
vt 0.6250 0.2000 1.0000
vt 0.6875 0.0000 1.0000
vt 0.6875 0.2000 1.0000
vt 0.8125 0.4000 1.0000
vt 0.7500 0.4000 1.0000
vt 0.8750 0.4000 1.0000
vt 0.9375 0.4000 1.0000
vt 0.0000 0.4000 1.0000
vt -0.0625 0.4000 1.0000
vt 0.5625 0.4000 1.0000
vt 0.5000 0.4000 1.0000
vt 0.6250 0.4000 1.0000
vt 0.6875 0.4000 1.0000
vt 0.8125 0.6000 1.0000
vt 0.7500 0.6000 1.0000
vt 0.8750 0.6000 1.0000
vt 0.9375 0.6000 1.0000
vt 0.0000 0.6000 1.0000
vt -0.0625 0.6000 1.0000
vt 0.5625 0.6000 1.0000
vt 0.5000 0.6000 1.0000
vt 0.6250 0.6000 1.0000
vt 0.6875 0.6000 1.0000
vt 0.8125 0.8000 1.0000
vt 0.7500 0.8000 1.0000
vt 0.8750 0.8000 1.0000
vt 0.9375 0.8000 1.0000
vt 0.0000 0.8000 1.0000
vt -0.0625 0.8000 1.0000
vt 0.5625 0.8000 1.0000
vt 0.5000 0.8000 1.0000
vt 0.6250 0.8000 1.0000
vt 0.6875 0.8000 1.0000
vt 0.8125 1.0000 1.0000
vt 0.7500 1.0000 1.0000
vt 0.8750 1.0000 1.0000
vt 0.9375 1.0000 1.0000
vt 0.0000 1.0000 1.0000
vt -0.0625 1.0000 1.0000
vt 0.5625 1.0000 1.0000
vt 0.5000 1.0000 1.0000
vt 0.6250 1.0000 1.0000
vt 0.6875 1.0000 1.0000
vt 0.9334 1.0000 0.8478
vt 0.0666 1.0000 -0.8478
vt 0.1367 1.0000 -0.5665
vt 0.2621 1.0000 -0.1989
# 69 texture coords

o Cylinder001
g Cylinder001
usemtl wire_135110008
s 1
f 1/1/1 2/2/1 3/3/1 
f 3/3/1 4/4/1 5/5/1 
f 5/5/1 6/6/1 7/7/1 
f 3/3/1 5/5/1 7/7/1 
f 1/1/1 3/3/1 7/7/1 
f 1/1/1 7/7/1 8/8/1 
f 9/9/1 1/1/1 8/8/1 
s 8
f 8/8/2 7/7/3 10/10/3 
f 10/10/3 11/11/2 8/8/2 
f 7/7/3 6/6/4 12/12/4 
f 12/12/4 10/10/3 7/7/3 
f 6/6/4 5/5/5 13/13/5 
f 13/13/5 12/12/4 6/6/4 
f 5/14/5 4/15/6 14/16/6 
f 14/16/6 13/17/5 5/14/5 
f 3/18/7 2/19/8 15/20/8 
f 15/20/8 16/21/7 3/18/7 
f 2/19/8 1/22/9 17/23/9 
f 17/23/9 15/20/8 2/19/8 
f 1/22/9 9/24/10 18/25/10 
f 18/25/10 17/23/9 1/22/9 
f 9/24/10 8/8/2 11/11/2 
f 11/11/2 18/25/10 9/24/10 
f 11/11/2 10/10/3 19/26/3 
f 19/26/3 20/27/2 11/11/2 
f 10/10/3 12/12/4 21/28/4 
f 21/28/4 19/26/3 10/10/3 
f 12/12/4 13/13/5 22/29/5 
f 22/29/5 21/28/4 12/12/4 
f 13/17/5 14/16/6 23/30/6 
f 23/30/6 22/31/5 13/17/5 
f 16/21/7 15/20/8 24/32/8 
f 24/32/8 25/33/7 16/21/7 
f 15/20/8 17/23/9 26/34/9 
f 26/34/9 24/32/8 15/20/8 
f 17/23/9 18/25/10 27/35/10 
f 27/35/10 26/34/9 17/23/9 
f 18/25/10 11/11/2 20/27/2 
f 20/27/2 27/35/10 18/25/10 
f 20/27/2 19/26/3 28/36/3 
f 28/36/3 29/37/2 20/27/2 
f 19/26/3 21/28/4 30/38/4 
f 30/38/4 28/36/3 19/26/3 
f 21/28/4 22/29/5 31/39/5 
f 31/39/5 30/38/4 21/28/4 
f 22/31/5 23/30/6 32/40/6 
f 32/40/6 31/41/5 22/31/5 
f 25/33/7 24/32/8 33/42/8 
f 33/42/8 34/43/7 25/33/7 
f 24/32/8 26/34/9 35/44/9 
f 35/44/9 33/42/8 24/32/8 
f 26/34/9 27/35/10 36/45/10 
f 36/45/10 35/44/9 26/34/9 
f 27/35/10 20/27/2 29/37/2 
f 29/37/2 36/45/10 27/35/10 
f 29/37/2 28/36/3 37/46/3 
f 37/46/3 38/47/2 29/37/2 
f 28/36/3 30/38/4 39/48/4 
f 39/48/4 37/46/3 28/36/3 
f 30/38/4 31/39/5 40/49/5 
f 40/49/5 39/48/4 30/38/4 
f 31/41/5 32/40/6 41/50/6 
f 41/50/6 40/51/5 31/41/5 
f 34/43/7 33/42/8 42/52/8 
f 42/52/8 43/53/7 34/43/7 
f 33/42/8 35/44/9 44/54/9 
f 44/54/9 42/52/8 33/42/8 
f 35/44/9 36/45/10 45/55/10 
f 45/55/10 44/54/9 35/44/9 
f 36/45/10 29/37/2 38/47/2 
f 38/47/2 45/55/10 36/45/10 
f 38/47/2 37/46/3 46/56/3 
f 46/56/3 47/57/2 38/47/2 
f 37/46/3 39/48/4 48/58/4 
f 48/58/4 46/56/3 37/46/3 
f 39/48/4 40/49/5 49/59/5 
f 49/59/5 48/58/4 39/48/4 
f 40/51/5 41/50/6 50/60/6 
f 50/60/6 49/61/5 40/51/5 
f 43/53/7 42/52/8 51/62/8 
f 51/62/8 52/63/7 43/53/7 
f 42/52/8 44/54/9 53/64/9 
f 53/64/9 51/62/8 42/52/8 
f 44/54/9 45/55/10 54/65/10 
f 54/65/10 53/64/9 44/54/9 
f 45/55/10 38/47/2 47/57/2 
f 47/57/2 54/65/10 45/55/10 
s 1
f 47/57/11 46/56/11 48/58/11 
f 48/58/11 49/59/11 50/66/11 
f 47/57/11 48/58/11 50/66/11 
f 50/66/11 52/67/11 51/68/11 
f 47/57/11 50/66/11 51/68/11 
f 47/57/11 51/68/11 53/69/11 
f 54/65/11 47/57/11 53/69/11 
s 2
f 3/18/12 52/63/12 50/60/12 
f 50/60/12 4/15/12 3/18/12 
# 96 faces

