# 3ds Max Wavefront OBJ Exporter v0.99 - (c)2007 guruware
# File Created: 13.11.2024 01:46:36

mtllib Cylinder3.mtl

#
# object Cylinder001
#

v  -1.7365 10.0000 -9.8481
v  -1.7365 -10.0000 -9.8481
v  -5.0000 -10.0000 -8.6603
v  -5.0000 10.0000 -8.6603
v  -7.6604 -10.0000 -6.4279
v  -7.6604 10.0000 -6.4279
v  -9.3969 -10.0000 -3.4202
v  -9.3969 10.0000 -3.4202
v  -10.0000 -10.0000 -0.0000
v  -10.0000 10.0000 -0.0000
v  -9.3969 -10.0000 3.4202
v  -9.3969 10.0000 3.4202
v  -7.6604 -10.0000 6.4279
v  -7.6604 10.0000 6.4279
v  -5.0000 -10.0000 8.6603
v  -5.0000 10.0000 8.6603
v  -1.7365 -10.0000 9.8481
v  -1.7365 10.0000 9.8481
v  1.7365 -10.0000 9.8481
v  1.7365 10.0000 9.8481
# 20 vertices

vn -0.1289 0.6700 -0.7311
vn -0.1289 -0.6700 -0.7311
vn -0.3712 -0.6700 -0.6429
vn -0.3712 0.6700 -0.6429
vn -0.5687 -0.6700 -0.4772
vn -0.5687 0.6700 -0.4772
vn -0.6976 -0.6700 -0.2539
vn -0.6976 0.6700 -0.2539
vn -0.7423 -0.6700 -0.0000
vn -0.7423 0.6700 -0.0000
vn -0.6976 -0.6700 0.2539
vn -0.6976 0.6700 0.2539
vn -0.5687 -0.6700 0.4772
vn -0.5687 0.6700 0.4772
vn -0.3712 -0.6700 0.6429
vn -0.3712 0.6700 0.6429
vn -0.1289 -0.6700 0.7311
vn -0.1289 0.6700 0.7311
vn 0.1289 -0.6700 0.7311
vn 0.1289 0.6700 0.7311
vn 0.9848 0.0000 -0.1736
# 21 vertex normals

vt 0.0278 1.0000 1.0000
vt 0.0278 0.0000 1.0000
vt 0.0833 0.0000 1.0000
vt 0.0833 1.0000 1.0000
vt 0.1389 0.0000 1.0000
vt 0.1389 1.0000 1.0000
vt 0.1944 0.0000 1.0000
vt 0.1944 1.0000 1.0000
vt 0.2500 0.0000 1.0000
vt 0.2500 1.0000 1.0000
vt 0.3056 0.0000 1.0000
vt 0.3056 1.0000 1.0000
vt 0.3611 0.0000 1.0000
vt 0.3611 1.0000 1.0000
vt 0.4167 0.0000 1.0000
vt 0.4167 1.0000 1.0000
vt 0.4722 0.0000 1.0000
vt 0.4722 1.0000 1.0000
vt 0.5278 0.0000 1.0000
vt 0.5278 1.0000 1.0000
vt 0.7267 1.0000 0.1848
vt 0.5932 1.0000 -0.1848
vt 0.4485 1.0000 -0.5321
vt 0.3100 1.0000 -0.8152
vt 0.1944 1.0000 -1.0000
vt 0.1157 1.0000 -1.0642
vt 0.0833 1.0000 -1.0000
vt 0.1012 1.0000 -0.8152
vt 0.1672 1.0000 -0.5321
vt 0.8328 1.0000 0.5321
vt 0.0278 0.0000 -1.0000
vt 0.0566 0.0000 -1.0642
vt 0.1389 0.0000 -1.0000
vt 0.2647 0.0000 -0.8152
vt 0.4190 0.0000 -0.5321
vt 0.5830 0.0000 -0.1848
vt 0.7369 0.0000 0.1848
vt 0.8624 0.0000 0.5321
vt 0.9441 0.0000 0.8152
vt 0.0559 0.0000 -0.8152
# 40 texture coords

o Cylinder001
g Cylinder001
usemtl wire_177148027
s 8
f 1/1/1 2/2/2 3/3/3 
f 3/3/3 4/4/4 1/1/1 
f 4/4/4 3/3/3 5/5/5 
f 5/5/5 6/6/6 4/4/4 
f 6/6/6 5/5/5 7/7/7 
f 7/7/7 8/8/8 6/6/6 
f 8/8/8 7/7/7 9/9/9 
f 9/9/9 10/10/10 8/8/8 
f 10/10/10 9/9/9 11/11/11 
f 11/11/11 12/12/12 10/10/10 
f 12/12/12 11/11/11 13/13/13 
f 13/13/13 14/14/14 12/12/12 
f 14/14/14 13/13/13 15/15/15 
f 15/15/15 16/16/16 14/14/14 
f 16/16/16 15/15/15 17/17/17 
f 17/17/17 18/18/18 16/16/16 
f 18/18/18 17/17/17 19/19/19 
f 19/19/19 20/20/20 18/18/18 
s 1
f 4/21/4 6/22/6 8/23/8 
f 8/23/8 10/24/10 12/25/12 
f 12/25/12 14/26/14 16/27/16 
f 16/27/16 18/28/18 20/29/20 
f 12/25/12 16/27/16 20/29/20 
f 8/23/8 12/25/12 20/29/20 
f 4/21/4 8/23/8 20/29/20 
f 1/30/1 4/21/4 20/29/20 
f 17/31/17 15/32/15 13/33/13 
f 13/33/13 11/34/11 9/35/9 
f 9/35/9 7/36/7 5/37/5 
f 5/37/5 3/38/3 2/39/2 
f 9/35/9 5/37/5 2/39/2 
f 13/33/13 9/35/9 2/39/2 
f 17/31/17 13/33/13 2/39/2 
f 19/40/19 17/31/17 2/39/2 
s 2
f 2/2/21 1/1/21 20/20/21 
f 20/20/21 19/19/21 2/2/21 
# 36 faces

