# 3ds Max Wavefront OBJ Exporter v0.99 - (c)2007 guruware
# File Created: 13.11.2024 01:01:33

mtllib Cylinder.mtl

#
# object Cylinder001
#

v  10.0000 -10.0000 -0.0000
v  0.0000 -10.0000 -0.0000
v  7.6604 -10.0000 -6.4279
v  9.3969 -10.0000 -3.4202
v  1.7365 -10.0000 -9.8481
v  5.0000 -10.0000 -8.6603
v  -5.0000 -10.0000 -8.6603
v  -1.7365 -10.0000 -9.8481
v  -9.3969 -10.0000 -3.4202
v  -7.6604 -10.0000 -6.4279
v  -9.3969 -10.0000 3.4202
v  -10.0000 -10.0000 -0.0000
v  -5.0000 -10.0000 8.6603
v  -7.6604 -10.0000 6.4279
v  1.7365 -10.0000 9.8481
v  -1.7365 -10.0000 9.8481
v  7.6604 -10.0000 6.4279
v  5.0000 -10.0000 8.6603
v  9.3969 -10.0000 3.4202
v  9.3969 -1.4286 -3.4202
v  9.3969 1.4286 -3.4202
v  10.0000 1.4286 -0.0000
v  10.0000 -1.4286 -0.0000
v  7.6604 -1.4286 -6.4279
v  7.6604 1.4286 -6.4279
v  5.0000 -1.4286 -8.6603
v  5.0000 1.4286 -8.6603
v  1.7365 -1.4286 -9.8481
v  1.7365 1.4286 -9.8481
v  -1.7365 -1.4286 -9.8481
v  -1.7365 1.4286 -9.8481
v  -5.0000 -1.4286 -8.6603
v  -5.0000 1.4286 -8.6603
v  -7.6604 -1.4286 -6.4279
v  -7.6604 1.4286 -6.4279
v  -9.3969 -1.4286 -3.4202
v  -9.3969 1.4286 -3.4202
v  -10.0000 -1.4286 -0.0000
v  -10.0000 1.4286 -0.0000
v  -9.3969 -1.4286 3.4202
v  -9.3969 1.4286 3.4202
v  -7.6604 -1.4286 6.4279
v  -7.6604 1.4286 6.4279
v  -5.0000 -1.4286 8.6603
v  -5.0000 1.4286 8.6603
v  -1.7365 -1.4286 9.8481
v  -1.7365 1.4286 9.8481
v  1.7365 -1.4286 9.8481
v  1.7365 1.4286 9.8481
v  5.0000 -1.4286 8.6603
v  5.0000 1.4286 8.6603
v  7.6604 -1.4286 6.4279
v  7.6604 1.4286 6.4279
v  9.3969 -1.4286 3.4202
v  9.3969 1.4286 3.4202
v  9.3969 10.0000 -3.4202
v  0.0000 10.0000 -0.0000
v  9.3969 10.0000 3.4202
v  10.0000 10.0000 -0.0000
v  5.0000 10.0000 -8.6603
v  7.6604 10.0000 -6.4279
v  -1.7365 10.0000 -9.8481
v  1.7365 10.0000 -9.8481
v  -7.6604 10.0000 -6.4279
v  -5.0000 10.0000 -8.6603
v  -10.0000 10.0000 -0.0000
v  -9.3969 10.0000 -3.4202
v  -7.6604 10.0000 6.4279
v  -9.3969 10.0000 3.4202
v  -1.7365 10.0000 9.8481
v  -5.0000 10.0000 8.6603
v  5.0000 10.0000 8.6603
v  1.7365 10.0000 9.8481
v  7.6604 10.0000 6.4279
v  10.0000 7.1429 -0.0000
v  9.3969 7.1429 -3.4202
v  10.0000 4.2857 -0.0000
v  9.3969 4.2857 -3.4202
v  9.3969 -7.1429 -3.4202
v  10.0000 -7.1429 -0.0000
v  9.3969 -4.2857 -3.4202
v  10.0000 -4.2857 -0.0000
v  7.6604 7.1429 -6.4279
v  7.6604 4.2857 -6.4279
v  7.6604 -7.1429 -6.4279
v  7.6604 -4.2857 -6.4279
v  5.0000 7.1429 -8.6603
v  5.0000 4.2857 -8.6603
v  5.0000 -7.1429 -8.6603
v  5.0000 -4.2857 -8.6603
v  1.7365 7.1429 -9.8481
v  1.7365 4.2857 -9.8481
v  1.7365 -7.1429 -9.8481
v  1.7365 -4.2857 -9.8481
v  -1.7365 7.1429 -9.8481
v  -1.7365 4.2857 -9.8481
v  -1.7365 -7.1429 -9.8481
v  -1.7365 -4.2857 -9.8481
v  -5.0000 7.1429 -8.6603
v  -5.0000 4.2857 -8.6603
v  -5.0000 -7.1429 -8.6603
v  -5.0000 -4.2857 -8.6603
v  -7.6604 7.1429 -6.4279
v  -7.6604 4.2857 -6.4279
v  -7.6604 -7.1429 -6.4279
v  -7.6604 -4.2857 -6.4279
v  -9.3969 7.1429 -3.4202
v  -9.3969 4.2857 -3.4202
v  -9.3969 -7.1429 -3.4202
v  -9.3969 -4.2857 -3.4202
v  -10.0000 7.1429 -0.0000
v  -10.0000 4.2857 -0.0000
v  -10.0000 -7.1429 -0.0000
v  -10.0000 -4.2857 -0.0000
v  -9.3969 7.1429 3.4202
v  -9.3969 4.2857 3.4202
v  -9.3969 -7.1429 3.4202
v  -9.3969 -4.2857 3.4202
v  -7.6604 7.1429 6.4279
v  -7.6604 4.2857 6.4279
v  -7.6604 -7.1429 6.4279
v  -7.6604 -4.2857 6.4279
v  -5.0000 7.1429 8.6603
v  -5.0000 4.2857 8.6603
v  -5.0000 -7.1429 8.6603
v  -5.0000 -4.2857 8.6603
v  -1.7365 7.1429 9.8481
v  -1.7365 4.2857 9.8481
v  -1.7365 -7.1429 9.8481
v  -1.7365 -4.2857 9.8481
v  1.7365 7.1429 9.8481
v  1.7365 4.2857 9.8481
v  1.7365 -7.1429 9.8481
v  1.7365 -4.2857 9.8481
v  5.0000 7.1429 8.6603
v  5.0000 4.2857 8.6603
v  5.0000 -7.1429 8.6603
v  5.0000 -4.2857 8.6603
v  7.6604 7.1429 6.4279
v  7.6604 4.2857 6.4279
v  7.6604 -7.1429 6.4279
v  7.6604 -4.2857 6.4279
v  9.3969 7.1429 3.4202
v  9.3969 4.2857 3.4202
v  9.3969 -7.1429 3.4202
v  9.3969 -4.2857 3.4202
# 146 vertices

vn 0.7423 -0.6701 -0.0000
vn 0.0000 -1.0000 -0.0000
vn 0.5687 -0.6700 -0.4772
vn 0.6975 -0.6701 -0.2539
vn 0.1289 -0.6701 -0.7310
vn 0.3712 -0.6701 -0.6428
vn -0.3712 -0.6700 -0.6429
vn -0.1289 -0.6700 -0.7311
vn -0.6976 -0.6700 -0.2539
vn -0.5687 -0.6700 -0.4772
vn -0.6976 -0.6700 0.2539
vn -0.7423 -0.6700 -0.0000
vn -0.3712 -0.6700 0.6429
vn -0.5687 -0.6700 0.4772
vn 0.1289 -0.6700 0.7311
vn -0.1289 -0.6700 0.7311
vn 0.5687 -0.6700 0.4772
vn 0.3712 -0.6700 0.6429
vn 0.6976 -0.6700 0.2539
vn 0.9397 0.0000 -0.3420
vn 1.0000 0.0000 0.0000
vn 0.7660 0.0000 -0.6428
vn 0.5000 0.0000 -0.8660
vn 0.1736 0.0000 -0.9848
vn -0.1736 0.0000 -0.9848
vn -0.5000 0.0000 -0.8660
vn -0.7660 0.0000 -0.6428
vn -0.9397 0.0000 -0.3420
vn -1.0000 0.0000 -0.0000
vn -0.9397 0.0000 0.3420
vn -0.7660 0.0000 0.6428
vn -0.5000 0.0000 0.8660
vn -0.1736 0.0000 0.9848
vn 0.1736 0.0000 0.9848
vn 0.5000 0.0000 0.8660
vn 0.7660 0.0000 0.6428
vn 0.9397 0.0000 0.3420
vn 0.6975 0.6701 -0.2539
vn 0.0000 1.0000 -0.0000
vn 0.6976 0.6700 0.2539
vn 0.7423 0.6701 -0.0000
vn 0.3712 0.6701 -0.6428
vn 0.5687 0.6700 -0.4772
vn -0.1289 0.6700 -0.7311
vn 0.1289 0.6701 -0.7310
vn -0.5687 0.6700 -0.4772
vn -0.3712 0.6700 -0.6429
vn -0.7423 0.6700 -0.0000
vn -0.6976 0.6700 -0.2539
vn -0.5687 0.6700 0.4772
vn -0.6976 0.6700 0.2539
vn -0.1289 0.6700 0.7311
vn -0.3712 0.6700 0.6429
vn 0.3712 0.6700 0.6429
vn 0.1289 0.6700 0.7311
vn 0.5687 0.6700 0.4772
vn 1.0000 0.0000 -0.0000
# 57 vertex normals

vt 0.7500 0.0000 1.0000
vt 0.5000 0.0000 0.0000
vt 0.8611 0.0000 1.0000
vt 0.8056 0.0000 1.0000
vt 0.9722 0.0000 1.0000
vt 0.9167 0.0000 1.0000
vt -0.0278 0.0000 1.0000
vt 0.0833 0.0000 1.0000
vt 0.0278 0.0000 1.0000
vt 0.1944 0.0000 1.0000
vt 0.1389 0.0000 1.0000
vt 0.3056 0.0000 1.0000
vt 0.2500 0.0000 1.0000
vt 0.4167 0.0000 1.0000
vt 0.3611 0.0000 1.0000
vt 0.5278 0.0000 1.0000
vt 0.4722 0.0000 1.0000
vt 0.6389 0.0000 1.0000
vt 0.5833 0.0000 1.0000
vt 0.6944 0.0000 1.0000
vt 0.8056 0.4286 1.0000
vt 0.8056 0.5714 1.0000
vt 0.7500 0.5714 1.0000
vt 0.7500 0.4286 1.0000
vt 0.8611 0.4286 1.0000
vt 0.8611 0.5714 1.0000
vt 0.9167 0.4286 1.0000
vt 0.9167 0.5714 1.0000
vt 0.9722 0.4286 1.0000
vt 0.9722 0.5714 1.0000
vt 0.0278 0.4286 1.0000
vt 0.0278 0.5714 1.0000
vt -0.0278 0.5714 1.0000
vt -0.0278 0.4286 1.0000
vt 0.0833 0.4286 1.0000
vt 0.0833 0.5714 1.0000
vt 0.1389 0.4286 1.0000
vt 0.1389 0.5714 1.0000
vt 0.1944 0.4286 1.0000
vt 0.1944 0.5714 1.0000
vt 0.2500 0.4286 1.0000
vt 0.2500 0.5714 1.0000
vt 0.3056 0.4286 1.0000
vt 0.3056 0.5714 1.0000
vt 0.3611 0.4286 1.0000
vt 0.3611 0.5714 1.0000
vt 0.4167 0.4286 1.0000
vt 0.4167 0.5714 1.0000
vt 0.4722 0.4286 1.0000
vt 0.4722 0.5714 1.0000
vt 0.5278 0.4286 1.0000
vt 0.5278 0.5714 1.0000
vt 0.5833 0.4286 1.0000
vt 0.5833 0.5714 1.0000
vt 0.6389 0.4286 1.0000
vt 0.6389 0.5714 1.0000
vt 0.6944 0.4286 1.0000
vt 0.6944 0.5714 1.0000
vt 0.8056 1.0000 1.0000
vt 0.5000 1.0000 0.0000
vt 0.6944 1.0000 1.0000
vt 0.7500 1.0000 1.0000
vt 0.9167 1.0000 1.0000
vt 0.8611 1.0000 1.0000
vt 0.0278 1.0000 1.0000
vt -0.0197 1.0000 0.8794
vt -0.0278 1.0000 1.0000
vt 0.1389 1.0000 1.0000
vt 0.0833 1.0000 1.0000
vt 0.2500 1.0000 1.0000
vt 0.1944 1.0000 1.0000
vt 0.3611 1.0000 1.0000
vt 0.3056 1.0000 1.0000
vt 0.4722 1.0000 1.0000
vt 0.4167 1.0000 1.0000
vt 0.5833 1.0000 1.0000
vt 0.5278 1.0000 1.0000
vt 0.6389 1.0000 1.0000
vt 0.7500 0.8571 1.0000
vt 0.8056 0.8571 1.0000
vt 0.7500 0.7143 1.0000
vt 0.8056 0.7143 1.0000
vt 0.8056 0.1429 1.0000
vt 0.7500 0.1429 1.0000
vt 0.8056 0.2857 1.0000
vt 0.7500 0.2857 1.0000
vt 0.8611 0.8571 1.0000
vt 0.8611 0.7143 1.0000
vt 0.8611 0.1429 1.0000
vt 0.8611 0.2857 1.0000
vt 0.9167 0.8571 1.0000
vt 0.9167 0.7143 1.0000
vt 0.9167 0.1429 1.0000
vt 0.9167 0.2857 1.0000
vt 0.9722 1.0000 1.0000
vt 0.9722 0.8571 1.0000
vt 0.9722 0.7143 1.0000
vt 0.9722 0.1429 1.0000
vt 0.9722 0.2857 1.0000
vt -0.0278 0.8571 1.0000
vt 0.0278 0.8571 1.0000
vt -0.0278 0.7143 1.0000
vt 0.0278 0.7143 1.0000
vt 0.0278 0.1429 1.0000
vt -0.0278 0.1429 1.0000
vt 0.0278 0.2857 1.0000
vt -0.0278 0.2857 1.0000
vt 0.0833 0.8571 1.0000
vt 0.0833 0.7143 1.0000
vt 0.0833 0.1429 1.0000
vt 0.0833 0.2857 1.0000
vt 0.1389 0.8571 1.0000
vt 0.1389 0.7143 1.0000
vt 0.1389 0.1429 1.0000
vt 0.1389 0.2857 1.0000
vt 0.1944 0.8571 1.0000
vt 0.1944 0.7143 1.0000
vt 0.1944 0.1429 1.0000
vt 0.1944 0.2857 1.0000
vt 0.2500 0.8571 1.0000
vt 0.2500 0.7143 1.0000
vt 0.2500 0.1429 1.0000
vt 0.2500 0.2857 1.0000
vt 0.3056 0.8571 1.0000
vt 0.3056 0.7143 1.0000
vt 0.3056 0.1429 1.0000
vt 0.3056 0.2857 1.0000
vt 0.3611 0.8571 1.0000
vt 0.3611 0.7143 1.0000
vt 0.3611 0.1429 1.0000
vt 0.3611 0.2857 1.0000
vt 0.4167 0.8571 1.0000
vt 0.4167 0.7143 1.0000
vt 0.4167 0.1429 1.0000
vt 0.4167 0.2857 1.0000
vt 0.4722 0.8571 1.0000
vt 0.4722 0.7143 1.0000
vt 0.4722 0.1429 1.0000
vt 0.4722 0.2857 1.0000
vt 0.5278 0.8571 1.0000
vt 0.5278 0.7143 1.0000
vt 0.5278 0.1429 1.0000
vt 0.5278 0.2857 1.0000
vt 0.5833 0.8571 1.0000
vt 0.5833 0.7143 1.0000
vt 0.5833 0.1429 1.0000
vt 0.5833 0.2857 1.0000
vt 0.6389 0.8571 1.0000
vt 0.6389 0.7143 1.0000
vt 0.6389 0.1429 1.0000
vt 0.6389 0.2857 1.0000
vt 0.6944 0.8571 1.0000
vt 0.6944 0.7143 1.0000
vt 0.6944 0.1429 1.0000
vt 0.6944 0.2857 1.0000
# 155 texture coords

o Cylinder001
g Cylinder001
usemtl wire_177148027
s 1
f 1/1/1 2/2/2 3/3/3 
f 3/3/3 4/4/4 1/1/1 
f 3/3/3 2/2/2 5/5/5 
f 5/5/5 6/6/6 3/3/3 
f 5/7/5 2/2/2 7/8/7 
f 7/8/7 8/9/8 5/7/5 
f 7/8/7 2/2/2 9/10/9 
f 9/10/9 10/11/10 7/8/7 
f 9/10/9 2/2/2 11/12/11 
f 11/12/11 12/13/12 9/10/9 
f 11/12/11 2/2/2 13/14/13 
f 13/14/13 14/15/14 11/12/11 
f 13/14/13 2/2/2 15/16/15 
f 15/16/15 16/17/16 13/14/13 
f 15/16/15 2/2/2 17/18/17 
f 17/18/17 18/19/18 15/16/15 
f 17/18/17 2/2/2 1/1/1 
f 1/1/1 19/20/19 17/18/17 
s 8
f 20/21/20 21/22/20 22/23/21 
f 22/23/21 23/24/21 20/21/20 
f 24/25/22 25/26/22 21/22/20 
f 21/22/20 20/21/20 24/25/22 
f 26/27/23 27/28/23 25/26/22 
f 25/26/22 24/25/22 26/27/23 
f 28/29/24 29/30/24 27/28/23 
f 27/28/23 26/27/23 28/29/24 
f 30/31/25 31/32/25 29/33/24 
f 29/33/24 28/34/24 30/31/25 
f 32/35/26 33/36/26 31/32/25 
f 31/32/25 30/31/25 32/35/26 
f 34/37/27 35/38/27 33/36/26 
f 33/36/26 32/35/26 34/37/27 
f 36/39/28 37/40/28 35/38/27 
f 35/38/27 34/37/27 36/39/28 
f 38/41/29 39/42/29 37/40/28 
f 37/40/28 36/39/28 38/41/29 
f 40/43/30 41/44/30 39/42/29 
f 39/42/29 38/41/29 40/43/30 
f 42/45/31 43/46/31 41/44/30 
f 41/44/30 40/43/30 42/45/31 
f 44/47/32 45/48/32 43/46/31 
f 43/46/31 42/45/31 44/47/32 
f 46/49/33 47/50/33 45/48/32 
f 45/48/32 44/47/32 46/49/33 
f 48/51/34 49/52/34 47/50/33 
f 47/50/33 46/49/33 48/51/34 
f 50/53/35 51/54/35 49/52/34 
f 49/52/34 48/51/34 50/53/35 
f 52/55/36 53/56/36 51/54/35 
f 51/54/35 50/53/35 52/55/36 
f 54/57/37 55/58/37 53/56/36 
f 53/56/36 52/55/36 54/57/37 
f 23/24/21 22/23/21 55/58/37 
f 55/58/37 54/57/37 23/24/21 
s 1
f 56/59/38 57/60/39 58/61/40 
f 58/61/40 59/62/41 56/59/38 
f 60/63/42 57/60/39 56/59/38 
f 56/59/38 61/64/43 60/63/42 
f 62/65/44 57/60/39 60/66/42 
f 60/66/42 63/67/45 62/65/44 
f 64/68/46 57/60/39 62/65/44 
f 62/65/44 65/69/47 64/68/46 
f 66/70/48 57/60/39 64/68/46 
f 64/68/46 67/71/49 66/70/48 
f 68/72/50 57/60/39 66/70/48 
f 66/70/48 69/73/51 68/72/50 
f 70/74/52 57/60/39 68/72/50 
f 68/72/50 71/75/53 70/74/52 
f 72/76/54 57/60/39 70/74/52 
f 70/74/52 73/77/55 72/76/54 
f 58/61/40 57/60/39 72/76/54 
f 72/76/54 74/78/56 58/61/40 
s 8
f 56/59/38 59/62/41 75/79/57 
f 75/79/57 76/80/20 56/59/38 
f 76/80/20 75/79/57 77/81/21 
f 77/81/21 78/82/20 76/80/20 
f 78/82/20 77/81/21 22/23/21 
f 22/23/21 21/22/20 78/82/20 
f 79/83/20 80/84/57 1/1/1 
f 1/1/1 4/4/4 79/83/20 
f 80/84/57 79/83/20 81/85/20 
f 81/85/20 82/86/21 80/84/57 
f 20/21/20 23/24/21 82/86/21 
f 82/86/21 81/85/20 20/21/20 
f 61/64/43 56/59/38 76/80/20 
f 76/80/20 83/87/22 61/64/43 
f 83/87/22 76/80/20 78/82/20 
f 78/82/20 84/88/22 83/87/22 
f 84/88/22 78/82/20 21/22/20 
f 21/22/20 25/26/22 84/88/22 
f 85/89/22 79/83/20 4/4/4 
f 4/4/4 3/3/3 85/89/22 
f 79/83/20 85/89/22 86/90/22 
f 86/90/22 81/85/20 79/83/20 
f 24/25/22 20/21/20 81/85/20 
f 81/85/20 86/90/22 24/25/22 
f 60/63/42 61/64/43 83/87/22 
f 83/87/22 87/91/23 60/63/42 
f 87/91/23 83/87/22 84/88/22 
f 84/88/22 88/92/23 87/91/23 
f 88/92/23 84/88/22 25/26/22 
f 25/26/22 27/28/23 88/92/23 
f 89/93/23 85/89/22 3/3/3 
f 3/3/3 6/6/6 89/93/23 
f 85/89/22 89/93/23 90/94/23 
f 90/94/23 86/90/22 85/89/22 
f 26/27/23 24/25/22 86/90/22 
f 86/90/22 90/94/23 26/27/23 
f 63/95/45 60/63/42 87/91/23 
f 87/91/23 91/96/24 63/95/45 
f 91/96/24 87/91/23 88/92/23 
f 88/92/23 92/97/24 91/96/24 
f 92/97/24 88/92/23 27/28/23 
f 27/28/23 29/30/24 92/97/24 
f 93/98/24 89/93/23 6/6/6 
f 6/6/6 5/5/5 93/98/24 
f 89/93/23 93/98/24 94/99/24 
f 94/99/24 90/94/23 89/93/23 
f 28/29/24 26/27/23 90/94/23 
f 90/94/23 94/99/24 28/29/24 
f 62/65/44 63/67/45 91/100/24 
f 91/100/24 95/101/25 62/65/44 
f 95/101/25 91/100/24 92/102/24 
f 92/102/24 96/103/25 95/101/25 
f 96/103/25 92/102/24 29/33/24 
f 29/33/24 31/32/25 96/103/25 
f 97/104/25 93/105/24 5/7/5 
f 5/7/5 8/9/8 97/104/25 
f 93/105/24 97/104/25 98/106/25 
f 98/106/25 94/107/24 93/105/24 
f 30/31/25 28/34/24 94/107/24 
f 94/107/24 98/106/25 30/31/25 
f 65/69/47 62/65/44 95/101/25 
f 95/101/25 99/108/26 65/69/47 
f 99/108/26 95/101/25 96/103/25 
f 96/103/25 100/109/26 99/108/26 
f 100/109/26 96/103/25 31/32/25 
f 31/32/25 33/36/26 100/109/26 
f 101/110/26 97/104/25 8/9/8 
f 8/9/8 7/8/7 101/110/26 
f 97/104/25 101/110/26 102/111/26 
f 102/111/26 98/106/25 97/104/25 
f 32/35/26 30/31/25 98/106/25 
f 98/106/25 102/111/26 32/35/26 
f 64/68/46 65/69/47 99/108/26 
f 99/108/26 103/112/27 64/68/46 
f 103/112/27 99/108/26 100/109/26 
f 100/109/26 104/113/27 103/112/27 
f 104/113/27 100/109/26 33/36/26 
f 33/36/26 35/38/27 104/113/27 
f 105/114/27 101/110/26 7/8/7 
f 7/8/7 10/11/10 105/114/27 
f 101/110/26 105/114/27 106/115/27 
f 106/115/27 102/111/26 101/110/26 
f 34/37/27 32/35/26 102/111/26 
f 102/111/26 106/115/27 34/37/27 
f 67/71/49 64/68/46 103/112/27 
f 103/112/27 107/116/28 67/71/49 
f 107/116/28 103/112/27 104/113/27 
f 104/113/27 108/117/28 107/116/28 
f 108/117/28 104/113/27 35/38/27 
f 35/38/27 37/40/28 108/117/28 
f 109/118/28 105/114/27 10/11/10 
f 10/11/10 9/10/9 109/118/28 
f 105/114/27 109/118/28 110/119/28 
f 110/119/28 106/115/27 105/114/27 
f 36/39/28 34/37/27 106/115/27 
f 106/115/27 110/119/28 36/39/28 
f 66/70/48 67/71/49 107/116/28 
f 107/116/28 111/120/29 66/70/48 
f 111/120/29 107/116/28 108/117/28 
f 108/117/28 112/121/29 111/120/29 
f 112/121/29 108/117/28 37/40/28 
f 37/40/28 39/42/29 112/121/29 
f 113/122/29 109/118/28 9/10/9 
f 9/10/9 12/13/12 113/122/29 
f 109/118/28 113/122/29 114/123/29 
f 114/123/29 110/119/28 109/118/28 
f 38/41/29 36/39/28 110/119/28 
f 110/119/28 114/123/29 38/41/29 
f 69/73/51 66/70/48 111/120/29 
f 111/120/29 115/124/30 69/73/51 
f 115/124/30 111/120/29 112/121/29 
f 112/121/29 116/125/30 115/124/30 
f 116/125/30 112/121/29 39/42/29 
f 39/42/29 41/44/30 116/125/30 
f 117/126/30 113/122/29 12/13/12 
f 12/13/12 11/12/11 117/126/30 
f 113/122/29 117/126/30 118/127/30 
f 118/127/30 114/123/29 113/122/29 
f 40/43/30 38/41/29 114/123/29 
f 114/123/29 118/127/30 40/43/30 
f 68/72/50 69/73/51 115/124/30 
f 115/124/30 119/128/31 68/72/50 
f 119/128/31 115/124/30 116/125/30 
f 116/125/30 120/129/31 119/128/31 
f 120/129/31 116/125/30 41/44/30 
f 41/44/30 43/46/31 120/129/31 
f 121/130/31 117/126/30 11/12/11 
f 11/12/11 14/15/14 121/130/31 
f 117/126/30 121/130/31 122/131/31 
f 122/131/31 118/127/30 117/126/30 
f 42/45/31 40/43/30 118/127/30 
f 118/127/30 122/131/31 42/45/31 
f 71/75/53 68/72/50 119/128/31 
f 119/128/31 123/132/32 71/75/53 
f 123/132/32 119/128/31 120/129/31 
f 120/129/31 124/133/32 123/132/32 
f 124/133/32 120/129/31 43/46/31 
f 43/46/31 45/48/32 124/133/32 
f 125/134/32 121/130/31 14/15/14 
f 14/15/14 13/14/13 125/134/32 
f 121/130/31 125/134/32 126/135/32 
f 126/135/32 122/131/31 121/130/31 
f 44/47/32 42/45/31 122/131/31 
f 122/131/31 126/135/32 44/47/32 
f 70/74/52 71/75/53 123/132/32 
f 123/132/32 127/136/33 70/74/52 
f 127/136/33 123/132/32 124/133/32 
f 124/133/32 128/137/33 127/136/33 
f 128/137/33 124/133/32 45/48/32 
f 45/48/32 47/50/33 128/137/33 
f 129/138/33 125/134/32 13/14/13 
f 13/14/13 16/17/16 129/138/33 
f 125/134/32 129/138/33 130/139/33 
f 130/139/33 126/135/32 125/134/32 
f 46/49/33 44/47/32 126/135/32 
f 126/135/32 130/139/33 46/49/33 
f 73/77/55 70/74/52 127/136/33 
f 127/136/33 131/140/34 73/77/55 
f 131/140/34 127/136/33 128/137/33 
f 128/137/33 132/141/34 131/140/34 
f 132/141/34 128/137/33 47/50/33 
f 47/50/33 49/52/34 132/141/34 
f 133/142/34 129/138/33 16/17/16 
f 16/17/16 15/16/15 133/142/34 
f 129/138/33 133/142/34 134/143/34 
f 134/143/34 130/139/33 129/138/33 
f 48/51/34 46/49/33 130/139/33 
f 130/139/33 134/143/34 48/51/34 
f 72/76/54 73/77/55 131/140/34 
f 131/140/34 135/144/35 72/76/54 
f 135/144/35 131/140/34 132/141/34 
f 132/141/34 136/145/35 135/144/35 
f 136/145/35 132/141/34 49/52/34 
f 49/52/34 51/54/35 136/145/35 
f 137/146/35 133/142/34 15/16/15 
f 15/16/15 18/19/18 137/146/35 
f 133/142/34 137/146/35 138/147/35 
f 138/147/35 134/143/34 133/142/34 
f 50/53/35 48/51/34 134/143/34 
f 134/143/34 138/147/35 50/53/35 
f 74/78/56 72/76/54 135/144/35 
f 135/144/35 139/148/36 74/78/56 
f 139/148/36 135/144/35 136/145/35 
f 136/145/35 140/149/36 139/148/36 
f 140/149/36 136/145/35 51/54/35 
f 51/54/35 53/56/36 140/149/36 
f 141/150/36 137/146/35 18/19/18 
f 18/19/18 17/18/17 141/150/36 
f 137/146/35 141/150/36 142/151/36 
f 142/151/36 138/147/35 137/146/35 
f 52/55/36 50/53/35 138/147/35 
f 138/147/35 142/151/36 52/55/36 
f 58/61/40 74/78/56 139/148/36 
f 139/148/36 143/152/37 58/61/40 
f 143/152/37 139/148/36 140/149/36 
f 140/149/36 144/153/37 143/152/37 
f 144/153/37 140/149/36 53/56/36 
f 53/56/36 55/58/37 144/153/37 
f 145/154/37 141/150/36 17/18/17 
f 17/18/17 19/20/19 145/154/37 
f 141/150/36 145/154/37 146/155/37 
f 146/155/37 142/151/36 141/150/36 
f 54/57/37 52/55/36 142/151/36 
f 142/151/36 146/155/37 54/57/37 
f 59/62/41 58/61/40 143/152/37 
f 143/152/37 75/79/57 59/62/41 
f 75/79/57 143/152/37 144/153/37 
f 144/153/37 77/81/21 75/79/57 
f 77/81/21 144/153/37 55/58/37 
f 55/58/37 22/23/21 77/81/21 
f 80/84/57 145/154/37 19/20/19 
f 19/20/19 1/1/1 80/84/57 
f 145/154/37 80/84/57 82/86/21 
f 82/86/21 146/155/37 145/154/37 
f 23/24/21 54/57/37 146/155/37 
f 146/155/37 82/86/21 23/24/21 
# 288 faces

