# 3ds Max Wavefront OBJ Exporter v0.99 - (c)2007 guruware
# File Created: 10.11.2024 23:47:09

mtllib Cylinder.mtl

#
# object Cylinder001
#

v  0.0000 -10.0000 -0.0000
v  7.6604 -10.0000 -6.4279
v  9.3969 -10.0000 -3.4202
v  10.0000 -10.0000 -0.0000
v  1.7365 -10.0000 -9.8481
v  5.0000 -10.0000 -8.6603
v  -5.0000 -10.0000 -8.6603
v  -1.7365 -10.0000 -9.8481
v  -9.3969 -10.0000 -3.4202
v  -7.6604 -10.0000 -6.4279
v  -9.3969 -10.0000 3.4202
v  -10.0000 -10.0000 -0.0000
v  -5.0000 -10.0000 8.6603
v  -7.6604 -10.0000 6.4279
v  1.7365 -10.0000 9.8481
v  -1.7365 -10.0000 9.8481
v  7.6604 -10.0000 6.4279
v  5.0000 -10.0000 8.6603
v  9.3969 -10.0000 3.4202
v  9.3969 10.0000 -3.4202
v  10.0000 10.0000 -0.0000
v  7.6604 10.0000 -6.4279
v  5.0000 10.0000 -8.6603
v  1.7365 10.0000 -9.8481
v  -1.7365 10.0000 -9.8481
v  -5.0000 10.0000 -8.6603
v  -7.6604 10.0000 -6.4279
v  -9.3969 10.0000 -3.4202
v  -10.0000 10.0000 -0.0000
v  -9.3969 10.0000 3.4202
v  -7.6604 10.0000 6.4279
v  -5.0000 10.0000 8.6603
v  -1.7365 10.0000 9.8481
v  1.7365 10.0000 9.8481
v  5.0000 10.0000 8.6603
v  7.6604 10.0000 6.4279
v  9.3969 10.0000 3.4202
v  0.0000 10.0000 -0.0000
# 38 vertices

vn 0.0000 -1.0000 -0.0000
vn 0.5687 -0.6700 -0.4772
vn 0.6975 -0.6701 -0.2539
vn 0.7423 -0.6701 0.0000
vn 0.1289 -0.6701 -0.7310
vn 0.3712 -0.6701 -0.6428
vn -0.3712 -0.6700 -0.6429
vn -0.1289 -0.6700 -0.7311
vn -0.6976 -0.6700 -0.2539
vn -0.5687 -0.6700 -0.4772
vn -0.6976 -0.6700 0.2539
vn -0.7423 -0.6700 -0.0000
vn -0.3712 -0.6700 0.6429
vn -0.5687 -0.6700 0.4772
vn 0.1289 -0.6700 0.7311
vn -0.1289 -0.6700 0.7311
vn 0.5687 -0.6700 0.4772
vn 0.3712 -0.6700 0.6429
vn 0.6976 -0.6700 0.2539
vn 0.6975 0.6701 -0.2539
vn 0.7423 0.6701 0.0000
vn 0.5687 0.6700 -0.4772
vn 0.3712 0.6701 -0.6428
vn 0.1289 0.6701 -0.7310
vn -0.1289 0.6700 -0.7311
vn -0.3712 0.6700 -0.6429
vn -0.5687 0.6700 -0.4772
vn -0.6976 0.6700 -0.2539
vn -0.7423 0.6700 -0.0000
vn -0.6976 0.6700 0.2539
vn -0.5687 0.6700 0.4772
vn -0.3712 0.6700 0.6429
vn -0.1289 0.6700 0.7311
vn 0.1289 0.6700 0.7311
vn 0.3712 0.6700 0.6429
vn 0.5687 0.6700 0.4772
vn 0.6976 0.6700 0.2539
vn 0.0000 1.0000 -0.0000
# 38 vertex normals

vt 0.5000 0.0000 0.0000
vt 0.8611 0.0000 1.0000
vt 0.8056 0.0000 1.0000
vt 0.7500 0.0000 1.0000
vt 0.9722 0.0000 1.0000
vt 0.9167 0.0000 1.0000
vt 0.0833 0.0000 1.0000
vt 0.0278 0.0000 1.0000
vt -0.0278 0.0000 1.0000
vt 0.1944 0.0000 1.0000
vt 0.1389 0.0000 1.0000
vt 0.3056 0.0000 1.0000
vt 0.2500 0.0000 1.0000
vt 0.4167 0.0000 1.0000
vt 0.3611 0.0000 1.0000
vt 0.5278 0.0000 1.0000
vt 0.4722 0.0000 1.0000
vt 0.6389 0.0000 1.0000
vt 0.5833 0.0000 1.0000
vt 0.6944 0.0000 1.0000
vt 0.8056 1.0000 1.0000
vt 0.7500 1.0000 1.0000
vt 0.8611 1.0000 1.0000
vt 0.9167 1.0000 1.0000
vt 0.9722 1.0000 1.0000
vt 0.0278 1.0000 1.0000
vt -0.0278 1.0000 1.0000
vt 0.0833 1.0000 1.0000
vt 0.1389 1.0000 1.0000
vt 0.1944 1.0000 1.0000
vt 0.2500 1.0000 1.0000
vt 0.3056 1.0000 1.0000
vt 0.3611 1.0000 1.0000
vt 0.4167 1.0000 1.0000
vt 0.4722 1.0000 1.0000
vt 0.5278 1.0000 1.0000
vt 0.5833 1.0000 1.0000
vt 0.6389 1.0000 1.0000
vt 0.6944 1.0000 1.0000
vt 0.5000 1.0000 0.0000
vt -0.0197 1.0000 0.8794
# 41 texture coords

o Cylinder001
g Cylinder001
usemtl wire_177148027
s 1
f 1/1/1 2/2/2 3/3/3 4/4/4 
f 1/1/1 5/5/5 6/6/6 2/2/2 
f 1/1/1 7/7/7 8/8/8 5/9/5 
f 1/1/1 9/10/9 10/11/10 7/7/7 
f 1/1/1 11/12/11 12/13/12 9/10/9 
f 1/1/1 13/14/13 14/15/14 11/12/11 
f 1/1/1 15/16/15 16/17/16 13/14/13 
f 1/1/1 17/18/17 18/19/18 15/16/15 
f 1/1/1 4/4/4 19/20/19 17/18/17 
s 8
f 4/4/4 3/3/3 20/21/20 21/22/21 
f 3/3/3 2/2/2 22/23/22 20/21/20 
f 2/2/2 6/6/6 23/24/23 22/23/22 
f 6/6/6 5/5/5 24/25/24 23/24/23 
f 5/9/5 8/8/8 25/26/25 24/27/24 
f 8/8/8 7/7/7 26/28/26 25/26/25 
f 7/7/7 10/11/10 27/29/27 26/28/26 
f 10/11/10 9/10/9 28/30/28 27/29/27 
f 9/10/9 12/13/12 29/31/29 28/30/28 
f 12/13/12 11/12/11 30/32/30 29/31/29 
f 11/12/11 14/15/14 31/33/31 30/32/30 
f 14/15/14 13/14/13 32/34/32 31/33/31 
f 13/14/13 16/17/16 33/35/33 32/34/32 
f 16/17/16 15/16/15 34/36/34 33/35/33 
f 15/16/15 18/19/18 35/37/35 34/36/34 
f 18/19/18 17/18/17 36/38/36 35/37/35 
f 17/18/17 19/20/19 37/39/37 36/38/36 
f 19/20/19 4/4/4 21/22/21 37/39/37 
s 1
f 38/40/38 37/39/37 21/22/21 20/21/20 
f 38/40/38 20/21/20 22/23/22 23/24/23 
f 38/40/38 23/41/23 24/27/24 25/26/25 
f 38/40/38 25/26/25 26/28/26 27/29/27 
f 38/40/38 27/29/27 28/30/28 29/31/29 
f 38/40/38 29/31/29 30/32/30 31/33/31 
f 38/40/38 31/33/31 32/34/32 33/35/33 
f 38/40/38 33/35/33 34/36/34 35/37/35 
f 38/40/38 35/37/35 36/38/36 37/39/37 
# 36 polygons

