# 3ds Max Wavefront OBJ Exporter v0.99 - (c)2007 guruware
# File Created: 13.11.2024 01:48:23

mtllib sphere3.mtl

#
# object Sphere001
#

v  0.0000 10.0000 -0.0000
v  0.0000 9.3969 3.4202
v  1.1698 9.3969 3.2139
v  2.1985 9.3969 2.6200
v  2.9620 9.3969 1.7101
v  3.3682 9.3969 0.5939
v  3.3682 9.3969 -0.5939
v  2.9620 9.3969 -1.7101
v  2.1985 9.3969 -2.6200
v  1.1698 9.3969 -3.2139
v  0.0000 9.3969 -3.4202
v  0.0000 7.6604 6.4279
v  2.1985 7.6604 6.0402
v  4.1318 7.6604 4.9240
v  5.5667 7.6604 3.2139
v  6.3302 7.6604 1.1162
v  6.3302 7.6604 -1.1162
v  5.5667 7.6604 -3.2139
v  4.1318 7.6604 -4.9240
v  2.1985 7.6604 -6.0402
v  0.0000 7.6604 -6.4279
v  0.0000 5.0000 8.6603
v  2.9620 5.0000 8.1380
v  5.5667 5.0000 6.6341
v  7.5000 5.0000 4.3301
v  8.5287 5.0000 1.5038
v  8.5287 5.0000 -1.5038
v  7.5000 5.0000 -4.3301
v  5.5667 5.0000 -6.6341
v  2.9620 5.0000 -8.1380
v  0.0000 5.0000 -8.6603
v  0.0000 1.7365 9.8481
v  3.3682 1.7365 9.2542
v  6.3302 1.7365 7.5441
v  8.5287 1.7365 4.9240
v  9.6985 1.7365 1.7101
v  9.6985 1.7365 -1.7101
v  8.5287 1.7365 -4.9240
v  6.3302 1.7365 -7.5441
v  3.3683 1.7365 -9.2542
v  0.0000 1.7365 -9.8481
v  0.0000 -1.7365 9.8481
v  3.3682 -1.7365 9.2542
v  6.3302 -1.7365 7.5441
v  8.5287 -1.7365 4.9240
v  9.6985 -1.7365 1.7101
v  9.6985 -1.7365 -1.7101
v  8.5287 -1.7365 -4.9240
v  6.3302 -1.7365 -7.5441
v  3.3683 -1.7365 -9.2542
v  0.0000 -1.7365 -9.8481
v  0.0000 -5.0000 8.6603
v  2.9620 -5.0000 8.1380
v  5.5667 -5.0000 6.6341
v  7.5000 -5.0000 4.3301
v  8.5287 -5.0000 1.5038
v  8.5287 -5.0000 -1.5038
v  7.5000 -5.0000 -4.3301
v  5.5667 -5.0000 -6.6341
v  2.9620 -5.0000 -8.1380
v  0.0000 -5.0000 -8.6603
v  0.0000 -7.6604 6.4279
v  2.1985 -7.6604 6.0402
v  4.1318 -7.6604 4.9240
v  5.5667 -7.6604 3.2139
v  6.3302 -7.6604 1.1162
v  6.3302 -7.6604 -1.1162
v  5.5667 -7.6604 -3.2139
v  4.1318 -7.6604 -4.9240
v  2.1985 -7.6604 -6.0402
v  0.0000 -7.6604 -6.4279
v  0.0000 -9.3969 3.4202
v  1.1698 -9.3969 3.2139
v  2.1985 -9.3969 2.6200
v  2.9620 -9.3969 1.7101
v  3.3682 -9.3969 0.5939
v  3.3682 -9.3969 -0.5939
v  2.9620 -9.3969 -1.7101
v  2.1985 -9.3969 -2.6200
v  1.1698 -9.3969 -3.2139
v  0.0000 -9.3969 -3.4202
v  0.0000 -10.0000 -0.0000
# 82 vertices

vn 0.0000 1.0000 -0.0000
vn 0.0000 0.9334 0.3588
vn 0.1227 0.9334 0.3372
vn 0.2306 0.9334 0.2749
vn 0.3107 0.9334 0.1794
vn 0.3534 0.9334 0.0623
vn 0.3534 0.9334 -0.0623
vn 0.3108 0.9334 -0.1794
vn 0.2306 0.9334 -0.2749
vn 0.1227 0.9334 -0.3372
vn 0.0000 0.9334 -0.3588
vn 0.0000 0.7567 0.6538
vn 0.2236 0.7567 0.6144
vn 0.4203 0.7567 0.5009
vn 0.5662 0.7567 0.3269
vn 0.6439 0.7567 0.1135
vn 0.6439 0.7567 -0.1135
vn 0.5662 0.7567 -0.3269
vn 0.4203 0.7567 -0.5009
vn 0.2236 0.7567 -0.6144
vn 0.0000 0.7567 -0.6538
vn 0.0000 0.4919 0.8707
vn 0.2978 0.4919 0.8182
vn 0.5597 0.4919 0.6670
vn 0.7540 0.4919 0.4353
vn 0.8574 0.4919 0.1512
vn 0.8575 0.4919 -0.1512
vn 0.7540 0.4919 -0.4353
vn 0.5597 0.4919 -0.6670
vn 0.2978 0.4919 -0.8182
vn 0.0000 0.4919 -0.8707
vn 0.0000 0.1705 0.9854
vn 0.3370 0.1705 0.9259
vn 0.6334 0.1705 0.7548
vn 0.8534 0.1705 0.4927
vn 0.9704 0.1705 0.1711
vn 0.9704 0.1705 -0.1711
vn 0.8534 0.1705 -0.4927
vn 0.6334 0.1705 -0.7548
vn 0.3370 0.1705 -0.9259
vn 0.0000 0.1705 -0.9854
vn 0.0000 -0.1705 0.9854
vn 0.3370 -0.1705 0.9259
vn 0.6334 -0.1705 0.7548
vn 0.8534 -0.1705 0.4927
vn 0.9704 -0.1705 0.1711
vn 0.9704 -0.1705 -0.1711
vn 0.8534 -0.1705 -0.4927
vn 0.6334 -0.1705 -0.7548
vn 0.3370 -0.1705 -0.9259
vn 0.0000 -0.1705 -0.9854
vn 0.0000 -0.4919 0.8707
vn 0.2978 -0.4919 0.8182
vn 0.5597 -0.4919 0.6670
vn 0.7540 -0.4919 0.4353
vn 0.8574 -0.4919 0.1512
vn 0.8575 -0.4919 -0.1512
vn 0.7540 -0.4919 -0.4353
vn 0.5597 -0.4919 -0.6670
vn 0.2978 -0.4919 -0.8182
vn 0.0000 -0.4919 -0.8707
vn 0.0000 -0.7567 0.6538
vn 0.2236 -0.7567 0.6144
vn 0.4203 -0.7567 0.5009
vn 0.5662 -0.7567 0.3269
vn 0.6439 -0.7567 0.1135
vn 0.6439 -0.7567 -0.1135
vn 0.5662 -0.7567 -0.3269
vn 0.4203 -0.7567 -0.5009
vn 0.2236 -0.7567 -0.6144
vn 0.0000 -0.7567 -0.6538
vn 0.0000 -0.9334 0.3588
vn 0.1227 -0.9334 0.3372
vn 0.2306 -0.9334 0.2749
vn 0.3107 -0.9334 0.1794
vn 0.3534 -0.9334 0.0623
vn 0.3534 -0.9334 -0.0623
vn 0.3108 -0.9334 -0.1794
vn 0.2306 -0.9334 -0.2749
vn 0.1227 -0.9334 -0.3372
vn 0.0000 -0.9334 -0.3588
vn 0.0000 -1.0000 -0.0000
# 82 vertex normals

vt 0.5000 1.0000 0.0000
vt 0.5000 0.8889 0.0000
vt 0.5556 0.8889 0.0000
vt 0.5556 1.0000 0.0000
vt 0.6111 0.8889 0.0000
vt 0.6111 1.0000 0.0000
vt 0.6667 0.8889 0.0000
vt 0.6667 1.0000 0.0000
vt 0.7222 0.8889 0.0000
vt 0.7222 1.0000 0.0000
vt 0.7778 0.8889 0.0000
vt 0.7778 1.0000 0.0000
vt 0.8333 0.8889 0.0000
vt 0.8333 1.0000 0.0000
vt 0.8889 0.8889 0.0000
vt 0.8889 1.0000 0.0000
vt 0.9444 0.8889 0.0000
vt 0.9444 1.0000 0.0000
vt 1.0000 0.8889 0.0000
vt 0.5000 0.7778 0.0000
vt 0.5556 0.7778 0.0000
vt 0.6111 0.7778 0.0000
vt 0.6667 0.7778 0.0000
vt 0.7222 0.7778 0.0000
vt 0.7778 0.7778 0.0000
vt 0.8333 0.7778 0.0000
vt 0.8889 0.7778 0.0000
vt 0.9444 0.7778 0.0000
vt 1.0000 0.7778 0.0000
vt 0.5000 0.6667 0.0000
vt 0.5556 0.6667 0.0000
vt 0.6111 0.6667 0.0000
vt 0.6667 0.6667 0.0000
vt 0.7222 0.6667 0.0000
vt 0.7778 0.6667 0.0000
vt 0.8333 0.6667 0.0000
vt 0.8889 0.6667 0.0000
vt 0.9444 0.6667 0.0000
vt 1.0000 0.6667 0.0000
vt 0.5000 0.5556 0.0000
vt 0.5556 0.5556 0.0000
vt 0.6111 0.5556 0.0000
vt 0.6667 0.5556 0.0000
vt 0.7222 0.5556 0.0000
vt 0.7778 0.5556 0.0000
vt 0.8333 0.5556 0.0000
vt 0.8889 0.5556 0.0000
vt 0.9444 0.5556 0.0000
vt 1.0000 0.5556 0.0000
vt 0.5000 0.4444 0.0000
vt 0.5556 0.4444 0.0000
vt 0.6111 0.4444 0.0000
vt 0.6667 0.4444 0.0000
vt 0.7222 0.4444 0.0000
vt 0.7778 0.4444 0.0000
vt 0.8333 0.4444 0.0000
vt 0.8889 0.4444 0.0000
vt 0.9444 0.4444 0.0000
vt 1.0000 0.4444 0.0000
vt 0.5000 0.3333 0.0000
vt 0.5556 0.3333 0.0000
vt 0.6111 0.3333 0.0000
vt 0.6667 0.3333 0.0000
vt 0.7222 0.3333 0.0000
vt 0.7778 0.3333 0.0000
vt 0.8333 0.3333 0.0000
vt 0.8889 0.3333 0.0000
vt 0.9444 0.3333 0.0000
vt 1.0000 0.3333 0.0000
vt 0.5000 0.2222 0.0000
vt 0.5556 0.2222 0.0000
vt 0.6111 0.2222 0.0000
vt 0.6667 0.2222 0.0000
vt 0.7222 0.2222 0.0000
vt 0.7778 0.2222 0.0000
vt 0.8333 0.2222 0.0000
vt 0.8889 0.2222 0.0000
vt 0.9444 0.2222 0.0000
vt 1.0000 0.2222 0.0000
vt 0.5000 0.1111 0.0000
vt 0.5556 0.1111 0.0000
vt 0.6111 0.1111 0.0000
vt 0.6667 0.1111 0.0000
vt 0.7222 0.1111 0.0000
vt 0.7778 0.1111 0.0000
vt 0.8333 0.1111 0.0000
vt 0.8889 0.1111 0.0000
vt 0.9444 0.1111 0.0000
vt 1.0000 0.1111 0.0000
vt 0.5000 0.0000 0.0000
vt 0.5556 0.0000 0.0000
vt 0.6111 0.0000 0.0000
vt 0.6667 0.0000 0.0000
vt 0.7222 0.0000 0.0000
vt 0.7778 0.0000 0.0000
vt 0.8333 0.0000 0.0000
vt 0.8889 0.0000 0.0000
vt 0.9444 0.0000 0.0000
# 98 texture coords

o Sphere001
g Sphere001
usemtl wire_135006006
s 1
f 1/1/1 2/2/2 3/3/3 
f 1/4/1 3/3/3 4/5/4 
f 1/6/1 4/5/4 5/7/5 
f 1/8/1 5/7/5 6/9/6 
f 1/10/1 6/9/6 7/11/7 
f 1/12/1 7/11/7 8/13/8 
f 1/14/1 8/13/8 9/15/9 
f 1/16/1 9/15/9 10/17/10 
f 1/18/1 10/17/10 11/19/11 
f 3/3/3 2/2/2 12/20/12 
f 12/20/12 13/21/13 3/3/3 
f 4/5/4 3/3/3 13/21/13 
f 13/21/13 14/22/14 4/5/4 
f 5/7/5 4/5/4 14/22/14 
f 14/22/14 15/23/15 5/7/5 
f 6/9/6 5/7/5 15/23/15 
f 15/23/15 16/24/16 6/9/6 
f 7/11/7 6/9/6 16/24/16 
f 16/24/16 17/25/17 7/11/7 
f 8/13/8 7/11/7 17/25/17 
f 17/25/17 18/26/18 8/13/8 
f 9/15/9 8/13/8 18/26/18 
f 18/26/18 19/27/19 9/15/9 
f 10/17/10 9/15/9 19/27/19 
f 19/27/19 20/28/20 10/17/10 
f 11/19/11 10/17/10 20/28/20 
f 20/28/20 21/29/21 11/19/11 
f 13/21/13 12/20/12 22/30/22 
f 22/30/22 23/31/23 13/21/13 
f 14/22/14 13/21/13 23/31/23 
f 23/31/23 24/32/24 14/22/14 
f 15/23/15 14/22/14 24/32/24 
f 24/32/24 25/33/25 15/23/15 
f 16/24/16 15/23/15 25/33/25 
f 25/33/25 26/34/26 16/24/16 
f 17/25/17 16/24/16 26/34/26 
f 26/34/26 27/35/27 17/25/17 
f 18/26/18 17/25/17 27/35/27 
f 27/35/27 28/36/28 18/26/18 
f 19/27/19 18/26/18 28/36/28 
f 28/36/28 29/37/29 19/27/19 
f 20/28/20 19/27/19 29/37/29 
f 29/37/29 30/38/30 20/28/20 
f 21/29/21 20/28/20 30/38/30 
f 30/38/30 31/39/31 21/29/21 
f 23/31/23 22/30/22 32/40/32 
f 32/40/32 33/41/33 23/31/23 
f 24/32/24 23/31/23 33/41/33 
f 33/41/33 34/42/34 24/32/24 
f 25/33/25 24/32/24 34/42/34 
f 34/42/34 35/43/35 25/33/25 
f 26/34/26 25/33/25 35/43/35 
f 35/43/35 36/44/36 26/34/26 
f 27/35/27 26/34/26 36/44/36 
f 36/44/36 37/45/37 27/35/27 
f 28/36/28 27/35/27 37/45/37 
f 37/45/37 38/46/38 28/36/28 
f 29/37/29 28/36/28 38/46/38 
f 38/46/38 39/47/39 29/37/29 
f 30/38/30 29/37/29 39/47/39 
f 39/47/39 40/48/40 30/38/30 
f 31/39/31 30/38/30 40/48/40 
f 40/48/40 41/49/41 31/39/31 
f 33/41/33 32/40/32 42/50/42 
f 42/50/42 43/51/43 33/41/33 
f 34/42/34 33/41/33 43/51/43 
f 43/51/43 44/52/44 34/42/34 
f 35/43/35 34/42/34 44/52/44 
f 44/52/44 45/53/45 35/43/35 
f 36/44/36 35/43/35 45/53/45 
f 45/53/45 46/54/46 36/44/36 
f 37/45/37 36/44/36 46/54/46 
f 46/54/46 47/55/47 37/45/37 
f 38/46/38 37/45/37 47/55/47 
f 47/55/47 48/56/48 38/46/38 
f 39/47/39 38/46/38 48/56/48 
f 48/56/48 49/57/49 39/47/39 
f 40/48/40 39/47/39 49/57/49 
f 49/57/49 50/58/50 40/48/40 
f 41/49/41 40/48/40 50/58/50 
f 50/58/50 51/59/51 41/49/41 
f 43/51/43 42/50/42 52/60/52 
f 52/60/52 53/61/53 43/51/43 
f 44/52/44 43/51/43 53/61/53 
f 53/61/53 54/62/54 44/52/44 
f 45/53/45 44/52/44 54/62/54 
f 54/62/54 55/63/55 45/53/45 
f 46/54/46 45/53/45 55/63/55 
f 55/63/55 56/64/56 46/54/46 
f 47/55/47 46/54/46 56/64/56 
f 56/64/56 57/65/57 47/55/47 
f 48/56/48 47/55/47 57/65/57 
f 57/65/57 58/66/58 48/56/48 
f 49/57/49 48/56/48 58/66/58 
f 58/66/58 59/67/59 49/57/49 
f 50/58/50 49/57/49 59/67/59 
f 59/67/59 60/68/60 50/58/50 
f 51/59/51 50/58/50 60/68/60 
f 60/68/60 61/69/61 51/59/51 
f 53/61/53 52/60/52 62/70/62 
f 62/70/62 63/71/63 53/61/53 
f 54/62/54 53/61/53 63/71/63 
f 63/71/63 64/72/64 54/62/54 
f 55/63/55 54/62/54 64/72/64 
f 64/72/64 65/73/65 55/63/55 
f 56/64/56 55/63/55 65/73/65 
f 65/73/65 66/74/66 56/64/56 
f 57/65/57 56/64/56 66/74/66 
f 66/74/66 67/75/67 57/65/57 
f 58/66/58 57/65/57 67/75/67 
f 67/75/67 68/76/68 58/66/58 
f 59/67/59 58/66/58 68/76/68 
f 68/76/68 69/77/69 59/67/59 
f 60/68/60 59/67/59 69/77/69 
f 69/77/69 70/78/70 60/68/60 
f 61/69/61 60/68/60 70/78/70 
f 70/78/70 71/79/71 61/69/61 
f 63/71/63 62/70/62 72/80/72 
f 72/80/72 73/81/73 63/71/63 
f 64/72/64 63/71/63 73/81/73 
f 73/81/73 74/82/74 64/72/64 
f 65/73/65 64/72/64 74/82/74 
f 74/82/74 75/83/75 65/73/65 
f 66/74/66 65/73/65 75/83/75 
f 75/83/75 76/84/76 66/74/66 
f 67/75/67 66/74/66 76/84/76 
f 76/84/76 77/85/77 67/75/67 
f 68/76/68 67/75/67 77/85/77 
f 77/85/77 78/86/78 68/76/68 
f 69/77/69 68/76/68 78/86/78 
f 78/86/78 79/87/79 69/77/69 
f 70/78/70 69/77/69 79/87/79 
f 79/87/79 80/88/80 70/78/70 
f 71/79/71 70/78/70 80/88/80 
f 80/88/80 81/89/81 71/79/71 
f 82/90/82 73/81/73 72/80/72 
f 82/91/82 74/82/74 73/81/73 
f 82/92/82 75/83/75 74/82/74 
f 82/93/82 76/84/76 75/83/75 
f 82/94/82 77/85/77 76/84/76 
f 82/95/82 78/86/78 77/85/77 
f 82/96/82 79/87/79 78/86/78 
f 82/97/82 80/88/80 79/87/79 
f 82/98/82 81/89/81 80/88/80 
# 144 faces

